<svg width="25" height="25" viewBox="0 0 25 25" fill="none" xmlns="http://www.w3.org/2000/svg">
<path d="M22.9994 17.7225V20.8839C23.0005 21.1774 22.9403 21.4679 22.8225 21.7368C22.7047 22.0057 22.5319 22.247 22.3152 22.4454C22.0985 22.6438 21.8427 22.7949 21.5642 22.8889C21.2856 22.9829 20.9904 23.0179 20.6975 22.9914C17.4484 22.6391 14.3275 21.5311 11.5853 19.7563C9.03418 18.1384 6.87123 15.9798 5.2501 13.4336C3.46565 10.6845 2.35515 7.55458 2.00857 4.29735C1.98218 4.00594 2.01688 3.71225 2.11046 3.43496C2.20404 3.15767 2.35444 2.90287 2.5521 2.68677C2.74975 2.47067 2.99033 2.29802 3.2585 2.1798C3.52668 2.06157 3.81659 2.00038 4.10976 2.0001H7.27738C7.78981 1.99507 8.28658 2.17617 8.67511 2.50964C9.06364 2.84311 9.31741 3.30621 9.38913 3.81261C9.52323 4.82424 9.7703 5.81796 10.1282 6.77374C10.2703 7.15091 10.301 7.56082 10.2168 7.9549C10.1326 8.34898 9.93699 8.7107 9.6531 8.99722L8.31214 10.3355C9.81524 12.9737 12.004 15.1581 14.6474 16.6582L15.9883 15.3199C16.2754 15.0366 16.6379 14.8413 17.0327 14.7573C17.4276 14.6732 17.8383 14.7039 18.2162 14.8457C19.1739 15.2029 20.1696 15.4495 21.1832 15.5834C21.6962 15.6556 22.1646 15.9134 22.4994 16.3078C22.8343 16.7022 23.0122 17.2057 22.9994 17.7225Z" stroke="#252525" stroke-width="1.5" stroke-linecap="round" stroke-linejoin="round"/>
</svg>
