<svg width="50" height="50" viewBox="0 0 50 50" fill="none" xmlns="http://www.w3.org/2000/svg">
<path d="M48.8002 25.3158C48.6194 24.9441 48.172 24.7902 47.8018 24.97L42.5149 27.5385L38.9121 29.099C38.3561 28.9555 36.9356 28.5833 35.6596 28.2051L35.0338 27.972C34.9422 27.9381 34.848 27.9241 34.7558 27.9266C34.3134 27.7836 33.9287 27.6481 33.6697 27.534C32.427 26.9869 30.2069 25.701 29.312 24.9247C28.3011 24.0508 25.6674 20.8072 25.641 20.7744C25.4173 20.4983 25.0301 20.4181 24.7153 20.582C23.9908 20.9592 21.6411 21.9542 20.397 21.5925C19.7403 21.3972 18.5251 20.7305 18.1813 20.3155C17.9521 20.0395 17.7568 19.0445 17.86 18.7266C18.1285 18.5906 19.1469 18.763 19.6457 18.8472C20.4991 18.9917 21.3063 19.1282 21.9296 18.9264C23.1433 18.5343 25.5907 16.4431 26.1806 15.929C26.766 15.7152 29.6543 14.7417 31.6687 15.5428C32.7315 15.9658 33.7648 16.1118 34.6866 16.1118C36.68 16.1118 38.1503 15.4267 38.2595 15.3744L45.6015 11.4508C45.9652 11.256 46.1028 10.8036 45.9084 10.4393C45.7136 10.0756 45.2612 9.93761 44.897 10.1324L37.5878 14.0391C37.5624 14.0511 34.9626 15.2439 32.2213 14.1537C29.8337 13.2031 26.7361 14.1482 25.7969 14.4781C24.7551 14.083 21.8265 13.0352 20.5251 13.2325C19.3103 13.4188 15.7728 13.5857 14.3399 13.3212C13.735 13.1503 9.14024 10.664 5.12491 8.412C4.76419 8.21021 4.30929 8.33826 4.10751 8.69849C3.90572 9.05822 4.03377 9.51411 4.3935 9.7159C7.01973 11.1892 13.2178 14.6315 14.0429 14.7855C15.7957 15.1104 19.5624 14.8921 20.7498 14.7103C21.3367 14.6211 22.9311 15.06 24.3266 15.5373C23.2833 16.3908 22.0377 17.3201 21.4697 17.5034C21.1937 17.5926 20.4737 17.4705 19.8948 17.3724C18.7105 17.1721 17.4863 16.9648 16.7688 17.6927C15.9681 18.5133 16.4479 20.5681 17.0299 21.2686C17.6303 21.9936 19.1474 22.7803 19.975 23.0259C21.5853 23.4938 23.8119 22.6428 24.8538 22.1719C25.642 23.128 27.4596 25.2984 28.3325 26.0532C29.4216 26.9984 31.8635 28.371 33.0663 28.9007C33.5346 29.1069 34.3263 29.365 35.1723 29.6176L38.6775 30.9235C38.8608 31.0182 38.9998 31.1946 39.091 31.4487C39.2495 31.8906 39.2176 32.4805 39.0128 32.915C38.7627 33.4411 38.2017 33.7152 37.67 33.6384C37.5649 33.5777 37.4468 33.5438 37.3248 33.5388L32.5725 31.0735C32.2063 30.8832 31.7549 31.0267 31.5651 31.3929C31.3753 31.7591 31.5177 32.2105 31.8845 32.4003L36.6706 34.8826C36.685 34.8895 36.7 34.8935 36.7144 34.9005C36.7508 35.0898 36.7169 35.2214 36.6631 35.3947C36.6267 35.5113 36.5844 35.6479 36.5629 35.8058C36.249 36.3857 35.5386 36.6423 34.9292 36.3803L30.9179 34.6369C30.8999 34.629 30.8815 34.626 30.8631 34.6195C30.8391 34.611 30.8152 34.602 30.7913 34.5966C30.7669 34.5906 30.742 34.5876 30.7176 34.5846C30.6937 34.5816 30.6702 34.5776 30.6468 34.5766C30.6214 34.5756 30.5965 34.5776 30.5716 34.5796C30.5487 34.5811 30.5257 34.5816 30.5033 34.5856C30.4784 34.5896 30.4545 34.5961 30.4306 34.6025C30.4087 34.6085 30.3862 34.6135 30.3648 34.6215C30.3419 34.6299 30.3205 34.6409 30.2986 34.6514C30.2771 34.6618 30.2557 34.6713 30.2353 34.6838C30.2148 34.6957 30.1964 34.7107 30.1775 34.7246C30.1575 34.7391 30.1381 34.7535 30.1197 34.77C30.1022 34.7859 30.0868 34.8038 30.0709 34.8213C30.0539 34.8402 30.0365 34.8581 30.0215 34.8786C30.0071 34.898 29.9956 34.9194 29.9827 34.9404C29.9722 34.9578 29.9602 34.9727 29.9513 34.9912C29.9483 34.9972 29.9473 35.0036 29.9443 35.0096C29.9418 35.0151 29.9378 35.0196 29.9358 35.0251C29.9284 35.042 29.9254 35.0589 29.9194 35.0764C29.9104 35.1018 29.901 35.1272 29.895 35.1526C29.8895 35.1755 29.887 35.1989 29.884 35.2224C29.8805 35.2473 29.8765 35.2722 29.876 35.2971C29.875 35.321 29.877 35.3449 29.8785 35.3688C29.88 35.3928 29.881 35.4167 29.8845 35.4406C29.8885 35.4645 29.895 35.4879 29.901 35.5113C29.9069 35.5343 29.9124 35.5567 29.9204 35.5791C29.9289 35.6015 29.9393 35.6234 29.9498 35.6449C29.9597 35.6663 29.9697 35.6877 29.9817 35.7076C29.9941 35.7286 30.0091 35.748 30.0235 35.7674C30.0375 35.7869 30.0514 35.8058 30.0674 35.8237C30.0838 35.8422 30.1027 35.8581 30.1217 35.8751C30.1396 35.891 30.1566 35.9074 30.176 35.9219C30.1964 35.9368 30.2188 35.9498 30.2413 35.9627C30.2572 35.9727 30.2716 35.9842 30.2886 35.9926L31.3578 36.5223C31.9921 36.8237 32.2641 37.585 31.9637 38.2203C31.8162 38.5322 31.5566 38.7678 31.2328 38.8834C30.9134 38.9975 30.5701 38.9801 30.2642 38.8346L27.2573 37.4141L28.1143 35.9603C28.9393 34.5657 28.475 32.7571 27.0799 31.929C27.0794 31.929 27.0789 31.9285 27.0789 31.9285C26.4561 31.5608 25.7521 31.4487 25.0894 31.5588C25.2255 30.227 24.6181 28.8827 23.4158 28.1678C23.4149 28.1668 23.4134 28.1663 23.4119 28.1653C22.2176 27.4637 20.7697 27.5634 19.6741 28.2928C19.4563 27.6451 19.0174 27.0681 18.3841 26.692C16.9786 25.8669 15.165 26.3317 14.3414 27.7273L12.3375 31.1188L7.43277 27.6102C7.41533 27.5978 7.3959 27.5893 7.37746 27.5788C7.35953 27.5684 7.34358 27.5554 7.32465 27.5465L2.02286 24.9715C1.65217 24.7917 1.20425 24.9456 1.02439 25.3173C0.844026 25.6885 0.998979 26.1359 1.37017 26.3163L6.61515 28.8643L11.6454 32.4631C11.2603 33.7341 11.7749 35.1551 12.9712 35.8606C13.4411 36.1371 13.9567 36.2687 14.4659 36.2687C14.6299 36.2687 14.7923 36.2502 14.9532 36.2233C14.8117 37.5666 15.4246 38.9228 16.6388 39.6413C17.1754 39.9571 17.7738 40.1186 18.3836 40.1186C18.694 40.1186 19.0074 40.0767 19.3168 39.992C19.6975 39.8879 20.0517 39.721 20.3721 39.5052C20.5923 40.149 21.0328 40.7214 21.664 41.0956C22.1329 41.3717 22.6481 41.5032 23.1568 41.5032C24.1652 41.5032 25.1497 40.987 25.7003 40.0593L26.496 38.7086L29.6244 40.1868C29.9996 40.3652 30.4017 40.4554 30.8053 40.4554C31.1182 40.4554 31.432 40.4016 31.736 40.293C32.4365 40.0433 32.998 39.5346 33.3159 38.8605C33.5361 38.3947 33.6114 37.8984 33.5665 37.4196L34.3368 37.7544C34.691 37.9074 35.0612 37.9791 35.4255 37.9791C36.4997 37.9791 37.5265 37.3518 37.9824 36.3055C38.0238 36.2114 38.0447 36.1132 38.0447 36.0106C38.0467 35.9832 38.0726 35.9015 38.091 35.8417C38.1458 35.6648 38.2196 35.4281 38.2291 35.1217C39.1259 34.9967 39.947 34.4366 40.3645 33.5572C40.7402 32.762 40.7915 31.7616 40.499 30.946C40.3994 30.6689 40.2594 30.4293 40.094 30.2175L43.1238 28.9052C43.1293 28.9027 43.1337 28.8992 43.1392 28.8962C43.1437 28.8942 43.1487 28.8937 43.1532 28.8912L48.455 26.3158C48.8257 26.1339 48.9806 25.687 48.8002 25.3158ZM13.73 34.5712C13.0375 34.1631 12.8043 33.2697 13.2099 32.5812L15.6283 28.4871C15.8984 28.0302 16.3842 27.7766 16.8829 27.7766C17.1355 27.7766 17.3916 27.8419 17.6243 27.9784C18.3124 28.3875 18.5426 29.2793 18.137 29.9664L15.7195 34.061C15.313 34.7495 14.4196 34.9777 13.73 34.5712ZM18.9222 38.5486C18.3966 38.6921 17.8555 38.6219 17.3976 38.3523C16.4395 37.7853 16.1355 36.5138 16.719 35.5188L19.8499 30.2245C20.2425 29.5564 20.9416 29.1817 21.6516 29.1817C21.9944 29.1817 22.3391 29.2689 22.653 29.4527C23.6052 30.0202 23.9036 31.2873 23.3182 32.2773L20.1892 37.5711C19.9042 38.0559 19.4543 38.4031 18.9222 38.5486ZM24.4133 39.297C24.0058 39.984 23.1119 40.2122 22.4238 39.8067C21.7303 39.3961 21.4971 38.5028 21.9047 37.8147L24.3212 33.7207C24.5917 33.2643 25.0765 33.0112 25.5747 33.0112C25.8283 33.0112 26.0849 33.0769 26.3191 33.2149C27.0057 33.6235 27.2349 34.5134 26.8283 35.2004L25.8144 36.9214C25.6041 36.9732 25.4173 37.1127 25.3176 37.3239C25.2389 37.4909 25.2304 37.6712 25.2753 37.8366L24.4133 39.297Z" fill="#0CDB92"/>
</svg>
