<svg width="6" height="15" viewBox="0 0 6 15" fill="none" xmlns="http://www.w3.org/2000/svg">
<path d="M1.1063 14.4783C1.26282 14.6087 1.47152 14.687 1.68021 14.687C1.81065 14.687 1.94108 14.6609 2.04543 14.6087L4.73239 13.4348C5.20195 13.2261 5.41065 12.7043 5.20195 12.2348C4.99326 11.7652 4.47152 11.5565 4.00195 11.7652L2.9063 12.2348L4.23673 5.45217C4.28891 5.11304 4.15847 4.74783 3.87152 4.53913C3.58456 4.33043 3.19326 4.30435 2.88021 4.48696L0.454124 5.86956C0.0106461 6.13043 -0.119789 6.67826 0.114994 7.12174C0.375864 7.56522 0.923689 7.69565 1.36717 7.46087L2.07152 7.06956L0.793256 13.5913C0.714995 13.9304 0.845429 14.2696 1.1063 14.4783Z" fill="white"/>
<path d="M4.65413 1.30435C4.65413 1.64348 4.4976 1.98261 4.26282 2.21739C4.02804 2.47826 3.68891 2.6087 3.34978 2.6087C3.01065 2.6087 2.67152 2.45217 2.43673 2.21739C2.17586 1.98261 2.04543 1.64348 2.04543 1.30435C2.04543 0.965217 2.20195 0.626087 2.43673 0.391304C2.67152 0.130434 3.01065 0 3.34978 0C3.68891 0 4.02804 0.156521 4.26282 0.391304C4.52369 0.626087 4.65413 0.965217 4.65413 1.30435Z" fill="white"/>
</svg>
