<svg width="19" height="19" viewBox="0 0 19 19" fill="none" xmlns="http://www.w3.org/2000/svg">
<g clip-path="url(#clip0_364_1099)">
<path d="M18.1363 13.7488V16.3397C18.1373 16.5803 18.088 16.8183 17.9917 17.0387C17.8953 17.2591 17.754 17.4569 17.5767 17.6195C17.3995 17.7821 17.1903 17.9059 16.9624 17.983C16.7346 18.06 16.4931 18.0887 16.2536 18.067C13.596 17.7782 11.0433 16.8701 8.8004 15.4156C6.7137 14.0897 4.94455 12.3205 3.61858 10.2338C2.15901 7.98077 1.2507 5.41559 0.967215 2.74609C0.945633 2.50727 0.974016 2.26657 1.05056 2.03931C1.1271 1.81206 1.25012 1.60323 1.41179 1.42613C1.57345 1.24902 1.77023 1.10752 1.98958 1.01063C2.20893 0.913745 2.44605 0.863591 2.68585 0.863365H5.27676C5.69589 0.85924 6.10222 1.00766 6.42001 1.28096C6.7378 1.55426 6.94537 1.9338 7.00403 2.34882C7.11372 3.17791 7.31581 3.99232 7.60858 4.77564C7.72478 5.08475 7.74992 5.4207 7.68104 5.74367C7.61216 6.06664 7.45214 6.3631 7.21994 6.59791L6.12312 7.69473C7.35256 9.85688 9.14279 11.6471 11.3049 12.8765L12.4018 11.7797C12.6366 11.5475 12.933 11.3875 13.256 11.3186C13.579 11.2497 13.9149 11.2749 14.224 11.3911C15.0074 11.6839 15.8218 11.886 16.6509 11.9956C17.0704 12.0548 17.4535 12.2661 17.7274 12.5894C18.0013 12.9126 18.1468 13.3253 18.1363 13.7488Z" stroke="white" stroke-linecap="round" stroke-linejoin="round"/>
</g>
<defs>
<clipPath id="clip0_364_1099">
<rect width="19" height="19" fill="white"/>
</clipPath>
</defs>
</svg>
