<svg width="44" height="44" viewBox="0 0 44 44" fill="none" xmlns="http://www.w3.org/2000/svg">
<circle cx="22" cy="22" r="22" fill="url(#paint0_linear_439_5367)"/>
<path d="M24.1954 13.7197C25.4668 14.0616 26.6261 14.7317 27.5571 15.6626C28.488 16.5936 29.1581 17.7529 29.5 19.0243M23.4187 16.6182C24.1816 16.8234 24.8771 17.2254 25.4357 17.784C25.9943 18.3425 26.3963 19.0381 26.6015 19.801M17.9197 21.6711C18.6976 23.2616 19.9869 24.545 21.5809 25.3157C21.6975 25.371 21.8265 25.395 21.9552 25.3852C22.0839 25.3755 22.2079 25.3324 22.3148 25.2602L24.6619 23.6951C24.7657 23.6259 24.8852 23.5837 25.0094 23.5723C25.1337 23.5608 25.2588 23.5806 25.3735 23.6298L29.7644 25.5116C29.9136 25.575 30.0381 25.6851 30.1193 25.8254C30.2004 25.9657 30.2338 26.1285 30.2143 26.2894C30.0755 27.3754 29.5456 28.3736 28.7239 29.0971C27.9021 29.8205 26.8448 30.2196 25.75 30.2197C22.3685 30.2197 19.1255 28.8764 16.7344 26.4853C14.3433 24.0942 13 20.8512 13 17.4697C13.0001 16.3749 13.3992 15.3176 14.1226 14.4958C14.8461 13.6741 15.8443 13.1442 16.9303 13.0054C17.0912 12.9859 17.254 13.0193 17.3943 13.1004C17.5346 13.1816 17.6447 13.3061 17.7081 13.4552L19.5916 17.85C19.6403 17.9637 19.6601 18.0877 19.6494 18.2109C19.6386 18.3341 19.5975 18.4527 19.5298 18.5562L17.9701 20.9393C17.8991 21.0465 17.8572 21.1703 17.8483 21.2986C17.8395 21.4268 17.864 21.5552 17.9197 21.6711V21.6711Z" stroke="white" stroke-linecap="round" stroke-linejoin="round"/>
<defs>
<linearGradient id="paint0_linear_439_5367" x1="44" y1="33" x2="0" y2="33" gradientUnits="userSpaceOnUse">
<stop stop-color="#2794F9"/>
<stop offset="1" stop-color="#0C5FDB"/>
</linearGradient>
</defs>
</svg>
