<svg width="38" height="38" viewBox="0 0 38 38" fill="none" xmlns="http://www.w3.org/2000/svg">
<path d="M38 19C38 29.4934 29.4934 38 19 38C8.50659 38 0 29.4934 0 19C0 8.50659 8.50659 0 19 0C29.4934 0 38 8.50659 38 19Z" fill="url(#paint0_linear_364_1040)"/>
<path d="M17.1063 26.4783C17.2628 26.6087 17.4715 26.687 17.6802 26.687C17.8106 26.687 17.9411 26.6609 18.0454 26.6087L20.7324 25.4348C21.202 25.2261 21.4106 24.7043 21.202 24.2348C20.9933 23.7652 20.4715 23.5565 20.002 23.7652L18.9063 24.2348L20.2367 17.4522C20.2889 17.113 20.1585 16.7478 19.8715 16.5391C19.5846 16.3304 19.1933 16.3043 18.8802 16.487L16.4541 17.8696C16.0106 18.1304 15.8802 18.6783 16.115 19.1217C16.3759 19.5652 16.9237 19.6957 17.3672 19.4609L18.0715 19.0696L16.7933 25.5913C16.715 25.9304 16.8454 26.2696 17.1063 26.4783Z" fill="white"/>
<path d="M20.6541 13.3043C20.6541 13.6435 20.4976 13.9826 20.2628 14.2174C20.028 14.4783 19.6889 14.6087 19.3498 14.6087C19.0106 14.6087 18.6715 14.4522 18.4367 14.2174C18.1759 13.9826 18.0454 13.6435 18.0454 13.3043C18.0454 12.9652 18.202 12.6261 18.4367 12.3913C18.6715 12.1304 19.0106 12 19.3498 12C19.6889 12 20.028 12.1565 20.2628 12.3913C20.5237 12.6261 20.6541 12.9652 20.6541 13.3043Z" fill="white"/>
<defs>
<linearGradient id="paint0_linear_364_1040" x1="38" y1="28.5" x2="0" y2="28.5" gradientUnits="userSpaceOnUse">
<stop stop-color="#2794F9"/>
<stop offset="1" stop-color="#0C5FDB"/>
</linearGradient>
</defs>
</svg>
