<svg width="150" height="18" viewBox="0 0 150 18" fill="none" xmlns="http://www.w3.org/2000/svg">
<path d="M6.23038 11.2564C4.92395 11.2564 4.24559 10.5972 4.24559 9.70963C4.24559 8.87343 4.92395 8.21423 6.10464 8.21423H9.87304V10.1411C8.9935 10.6987 7.73736 11.2564 6.23038 11.2564ZM7.36078 2.81379C9.0438 2.81379 9.87304 3.42223 9.87304 5.39981H5.80349C2.51227 5.39981 0 6.84509 0 9.70963C0 12.5748 2.51227 14.0702 5.80349 14.0702C7.73736 14.0702 9.11924 13.4872 10.2496 12.6757V13.0564C10.2496 13.4872 10.5766 13.8171 11.0034 13.8171H13.3648C13.7917 13.8171 14.1186 13.4872 14.1186 13.0564V5.39981C14.1186 1.52141 11.2801 0 7.66255 0C3.59237 0 0.979509 0.912974 0.979509 3.54912C0.979509 3.98054 1.30643 4.30982 1.73332 4.30982H3.56722C4.19529 4.30982 4.64732 4.05604 4.97425 3.65063C5.40113 3.11832 6.33097 2.81379 7.36078 2.81379ZM24.3016 2.99144C26.3116 2.99144 27.1402 4.23369 27.1402 7.02273C27.1402 9.83652 26.3116 11.0788 24.0501 11.0788C23.4221 11.0788 22.4174 10.9011 21.3876 10.5719V4.1068C22.2665 3.54912 23.3969 2.99144 24.3016 2.99144ZM25.3063 0C23.5227 0 22.1408 0.58306 21.0104 1.39452V1.01385C21.0104 0.58306 20.6841 0.25378 20.2572 0.25378H17.8952C17.4683 0.25378 17.142 0.58306 17.142 1.01385V17.2393C17.142 17.6701 17.4683 18 17.8952 18H20.6338C21.0607 18 21.3876 17.6701 21.3876 17.2393V13.4364C22.4174 13.7663 23.4221 14.0702 24.9297 14.0702C28.849 14.0702 31.5115 11.6872 31.5115 7.02273C31.5115 2.383 28.8735 0 25.3063 0V0ZM40.935 2.99144C42.945 2.99144 43.7736 4.23369 43.7736 7.02273C43.7736 9.83652 42.945 11.0788 40.6842 11.0788C40.0561 11.0788 39.0508 10.9011 38.021 10.5719V4.1068C38.9 3.54912 40.031 2.99144 40.935 2.99144ZM41.9403 0C40.1561 0 38.7748 0.58306 37.6444 1.39452V1.01385C37.6444 0.58306 37.3175 0.25378 36.8906 0.25378H34.5293C34.1017 0.25378 33.7754 0.58306 33.7754 1.01385V17.2393C33.7754 17.6701 34.1017 18 34.5293 18H37.2672C37.6941 18 38.021 17.6701 38.021 17.2393V13.4364C39.0508 13.7663 40.0561 14.0702 41.5631 14.0702C45.4824 14.0702 48.1449 11.6872 48.1449 7.02273C48.1449 2.383 45.5075 0 41.9403 0V0ZM61.0917 4.00592C61.6191 3.47298 61.9706 3.04219 61.9706 2.20599V1.01385C61.9706 0.58306 61.6443 0.25378 61.2174 0.25378H50.0379C49.611 0.25378 49.2841 0.58306 49.2841 1.01385V2.48451C49.2841 2.9153 49.611 3.24522 50.0379 3.24522H56.6198L50.1637 10.0649C49.6362 10.5972 49.2841 11.028 49.2841 11.8649V13.0564C49.2841 13.4872 49.611 13.8171 50.0379 13.8171H61.3174C61.7449 13.8171 62.0712 13.4872 62.0712 13.0564V11.5857C62.0712 11.1549 61.7449 10.8256 61.3174 10.8256H54.4093L61.0917 4.00592ZM70.8541 11.2564C68.7184 11.2564 67.6886 10.0142 67.6886 7.02273C67.6886 4.0313 68.7184 2.81379 70.8541 2.81379C72.9891 2.81379 74.0189 4.0313 74.0189 7.02273C74.0189 10.0142 72.9891 11.2564 70.8541 11.2564ZM70.8541 0C66.1055 0 63.443 2.35762 63.443 7.02273C63.443 11.6872 66.1055 14.0702 70.8541 14.0702C75.602 14.0702 78.2645 11.6872 78.2645 7.02273C78.2645 2.35762 75.602 0 70.8541 0V0ZM90.4084 13.0564C90.4084 13.4872 90.7353 13.8171 91.1622 13.8171H93.9002C94.3277 13.8171 94.654 13.4872 94.654 13.0564V5.95749C94.654 1.74918 92.3429 0 89.0768 0C87.1926 0 85.9371 0.811463 84.7809 1.79994V1.01385C84.7809 0.58306 84.4547 0.25378 84.0278 0.25378H81.2892C80.8623 0.25378 80.5354 0.58306 80.5354 1.01385V13.0564C80.5354 13.4872 80.8623 13.8171 81.2892 13.8171H84.0278C84.4547 13.8171 84.7809 13.4872 84.7809 13.0564V4.76599C85.6856 3.85365 86.8412 2.99144 88.0722 2.99144C89.454 2.99144 90.4084 3.85365 90.4084 5.95749V13.0564ZM110.472 8.34049C110.899 8.34049 111.226 8.01121 111.226 7.58042V6.87047C111.226 2.40837 108.537 0 104.066 0C99.6194 0 96.906 2.48451 96.906 7.04811C96.906 11.6365 99.5943 14.0702 104.066 14.0702C108.085 14.0702 110.773 13.1579 110.773 10.5211C110.773 10.0903 110.447 9.76039 110.02 9.76039H108.186C107.558 9.76039 107.106 10.0142 106.779 10.4196C106.352 10.9519 105.422 11.2564 104.367 11.2564C102.307 11.2564 101.403 10.3688 101.227 8.34049H110.472ZM104.066 2.81379C105.925 2.81379 106.829 3.82828 106.905 5.72972H101.202C101.302 3.82828 102.257 2.81379 104.066 2.81379ZM112.981 12.2703C112.981 13.3349 113.584 13.9433 114.639 13.9433H116.147C117.202 13.9433 117.804 13.3349 117.804 12.2703V11.4842C117.804 10.4196 117.202 9.81114 116.147 9.81114H114.639C113.584 9.81114 112.981 10.4196 112.981 11.4842V12.2703ZM127.161 2.99144C128.443 2.99144 129.372 3.47298 129.799 4.15756C130.151 4.71524 130.578 5.07053 131.206 5.07053H133.04C133.467 5.07053 133.793 4.74062 133.793 4.30982C133.793 1.4199 131.181 0 126.86 0C122.237 0 119.575 2.383 119.575 7.04811C119.575 11.6872 122.212 14.0702 126.986 14.0702C131.307 14.0702 133.919 12.6509 133.919 9.76039C133.919 9.3296 133.593 8.99968 133.165 8.99968H131.332C130.704 8.99968 130.277 9.35498 129.925 9.91266C129.498 10.5972 128.568 11.0788 127.287 11.0788C124.775 11.0788 123.946 9.83652 123.946 7.04811C123.946 4.23369 124.775 2.99144 127.161 2.99144ZM142.589 11.2564C140.453 11.2564 139.423 10.0142 139.423 7.02273C139.423 4.0313 140.453 2.81379 142.589 2.81379C144.724 2.81379 145.754 4.0313 145.754 7.02273C145.754 10.0142 144.724 11.2564 142.589 11.2564ZM142.589 0C137.841 0 135.178 2.35762 135.178 7.02273C135.178 11.6872 137.841 14.0702 142.589 14.0702C147.337 14.0702 150 11.6872 150 7.02273C150 2.35762 147.337 0 142.589 0V0Z" fill="white"/>
</svg>
