<svg width="40" height="40" viewBox="0 0 40 40" fill="none" xmlns="http://www.w3.org/2000/svg">
<path d="M12.8688 16.9166H8.97777C8.64734 16.9166 8.37988 17.1841 8.37988 17.5145V21.4056C8.37988 21.7356 8.64734 22.0035 8.97777 22.0035H12.8688C13.1993 22.0035 13.4667 21.7356 13.4667 21.4056V17.5145C13.4667 17.1845 13.1993 16.9166 12.8688 16.9166ZM12.2709 20.8077H9.57566V18.1124H12.2709V20.8077Z" fill="#0CDB92"/>
<path d="M21.944 16.9166H18.053C17.7225 16.9166 17.4551 17.1841 17.4551 17.5145V21.4056C17.4551 21.7356 17.7225 22.0035 18.053 22.0035H21.944C22.2741 22.0035 22.5419 21.7356 22.5419 21.4056V17.5145C22.5419 17.1845 22.2741 16.9166 21.944 16.9166ZM21.3461 20.8077H18.6509V18.1124H21.3461V20.8077Z" fill="#0CDB92"/>
<path d="M30.7399 16.9166H26.8489C26.5188 16.9166 26.251 17.1841 26.251 17.5145V21.4056C26.251 21.7356 26.5188 22.0035 26.8489 22.0035H30.7399C31.07 22.0035 31.3378 21.7356 31.3378 21.4056V17.5145C31.3378 17.1845 31.07 16.9166 30.7399 16.9166ZM30.142 20.8077H27.4468V18.1124H30.142V20.8077Z" fill="#0CDB92"/>
<path d="M12.8688 25.7798H8.97777C8.64734 25.7798 8.37988 26.0476 8.37988 26.3777V30.2687C8.37988 30.5988 8.64734 30.8666 8.97777 30.8666H12.8688C13.1993 30.8666 13.4667 30.5988 13.4667 30.2687V26.3777C13.4667 26.0476 13.1993 25.7798 12.8688 25.7798ZM12.2709 29.6709H9.57566V26.9756H12.2709V29.6709Z" fill="#0CDB92"/>
<path d="M21.944 25.7798H18.053C17.7225 25.7798 17.4551 26.0476 17.4551 26.3777V30.2687C17.4551 30.5988 17.7225 30.8666 18.053 30.8666H21.944C22.2741 30.8666 22.5419 30.5988 22.5419 30.2687V26.3777C22.5419 26.0476 22.2741 25.7798 21.944 25.7798ZM21.3461 29.6709H18.6509V26.9756H21.3461V29.6709Z" fill="#0CDB92"/>
<path d="M30.7399 25.7798H26.8489C26.5188 25.7798 26.251 26.0476 26.251 26.3777V30.2687C26.251 30.5988 26.5188 30.8666 26.8489 30.8666H30.7399C31.07 30.8666 31.3378 30.5988 31.3378 30.2687V26.3777C31.3378 26.0476 31.07 25.7798 30.7399 25.7798ZM30.142 29.6709H27.4468V26.9756H30.142V29.6709Z" fill="#0CDB92"/>
<path d="M35.475 5.33874H31.5261C31.521 5.33874 31.5166 5.33994 31.5114 5.34034V4.54395C31.5114 3.24134 30.4519 2.18188 29.1493 2.18188C27.8467 2.18188 26.7873 3.24174 26.7873 4.54395V5.33874H22.3378V4.54395C22.3378 3.24134 21.2783 2.18188 19.9757 2.18188C18.6731 2.18188 17.6136 3.24174 17.6136 4.54395V5.33874H13.1638V4.54395C13.1638 3.24134 12.1043 2.18188 10.8017 2.18188C9.49909 2.18188 8.43963 3.24174 8.43963 4.54395V5.33914C8.43763 5.33914 8.43564 5.33874 8.43365 5.33874H4.48558C4.15515 5.33874 3.8877 5.6062 3.8877 5.93663V36.9256C3.8877 37.2557 4.15515 37.5235 4.48558 37.5235H35.475C35.805 37.5235 36.0729 37.2557 36.0729 36.9256V5.93663C36.0729 5.6062 35.805 5.33874 35.475 5.33874ZM27.983 4.54395C27.983 3.90062 28.506 3.37766 29.1493 3.37766C29.7926 3.37766 30.3156 3.90062 30.3156 4.54395V7.8431C30.3156 8.48603 29.7926 9.00938 29.1493 9.00938C28.506 9.00938 27.983 8.48643 27.983 7.8431V4.54395ZM19.9757 3.37766C20.6186 3.37766 21.142 3.90062 21.142 4.54395V7.8431C21.142 8.48603 20.619 9.00938 19.9757 9.00938C19.3324 9.00938 18.8094 8.48643 18.8094 7.8431V5.99243C18.811 5.9737 18.815 5.95576 18.815 5.93623C18.815 5.9167 18.811 5.89876 18.8094 5.88003V4.54395C18.8094 3.90062 19.3324 3.37766 19.9757 3.37766ZM9.63541 4.54395C9.63541 3.90062 10.1584 3.37766 10.8017 3.37766C11.4446 3.37766 11.968 3.90062 11.968 4.54395V7.8431C11.968 8.48603 11.445 9.00938 10.8017 9.00938C10.1584 9.00938 9.63541 8.48643 9.63541 7.8431V4.54395ZM34.8771 36.3278H5.08347V6.53452H8.43365C8.43564 6.53452 8.43763 6.53412 8.43963 6.53412V7.8435C8.43963 9.1461 9.49949 10.2056 10.8017 10.2056C12.1039 10.2056 13.1638 9.1461 13.1638 7.8435V6.53492H17.6136V7.8435C17.6136 9.1461 18.6735 10.2056 19.9757 10.2056C21.2779 10.2056 22.3378 9.1461 22.3378 7.8435V6.53492H26.7873V7.8435C26.7873 9.1461 27.8467 10.2056 29.1493 10.2056C30.4519 10.2056 31.5114 9.1461 31.5114 7.8435V6.53293C31.5166 6.53293 31.521 6.53452 31.5261 6.53452H34.8771V36.3278Z" fill="#0CDB92"/>
</svg>
