<svg width="40" height="40" viewBox="0 0 40 40" fill="none" xmlns="http://www.w3.org/2000/svg">
<path d="M19.9226 6.78198C12.5266 6.78198 6.50977 12.7991 6.50977 20.1946C6.50977 27.5901 12.527 33.6073 19.9226 33.6073C27.3185 33.6073 33.3357 27.5901 33.3357 20.1946C33.3357 12.7991 27.3185 6.78198 19.9226 6.78198ZM19.9226 32.1696C13.3194 32.1696 7.94711 26.7977 7.94711 20.1946C7.94711 13.5915 13.3194 8.21931 19.9226 8.21931C26.5257 8.21931 31.8976 13.5915 31.8976 20.1946C31.8976 26.7977 26.5257 32.1696 19.9226 32.1696Z" fill="#0CDB92"/>
<path d="M23.3112 18.0157L20.4182 20.9086V10.6186C20.4182 10.2216 20.0961 9.8999 19.6991 9.8999C19.3021 9.8999 18.9805 10.2216 18.9805 10.6186V22.6437C18.9805 22.6911 18.9853 22.7386 18.9948 22.7852C18.9988 22.8055 19.0064 22.8243 19.0124 22.8442C19.0195 22.8693 19.0255 22.8948 19.0359 22.9195C19.0458 22.9435 19.0594 22.965 19.0717 22.9877C19.0817 23.0064 19.0901 23.0256 19.102 23.0435C19.1547 23.1224 19.2228 23.1902 19.3017 23.2432C19.3165 23.2532 19.3324 23.2595 19.3476 23.2679C19.3731 23.2823 19.3978 23.2974 19.4253 23.309C19.4468 23.3177 19.4695 23.3229 19.4915 23.3297C19.5142 23.3365 19.5357 23.3452 19.5592 23.3496C19.6055 23.3588 19.6525 23.364 19.6995 23.364C19.7466 23.364 19.7936 23.3592 19.8398 23.3496C19.8634 23.3448 19.8853 23.3365 19.908 23.3293C19.9299 23.3225 19.9522 23.3177 19.9738 23.309C20.0017 23.2974 20.0272 23.2819 20.0531 23.2671C20.0678 23.2587 20.083 23.2528 20.0973 23.2432C20.1376 23.2165 20.1751 23.1862 20.2085 23.1519L24.328 19.0325C24.6087 18.7519 24.6087 18.2967 24.328 18.0161C24.047 17.7346 23.5922 17.7346 23.3112 18.0157Z" fill="#0CDB92"/>
<path d="M19.923 3.60486C10.7752 3.60486 3.33301 11.047 3.33301 20.1951C3.33301 29.3432 10.7752 36.7849 19.923 36.7849C29.0708 36.7849 36.5134 29.3428 36.5134 20.1951C36.5134 11.0474 29.0708 3.60486 19.923 3.60486ZM19.923 35.3468C11.568 35.3468 4.77035 28.5496 4.77035 20.1947C4.77035 11.8398 11.5676 5.04218 19.923 5.04218C28.2784 5.04218 35.0753 11.8398 35.0753 20.1947C35.0753 28.5496 28.278 35.3468 19.923 35.3468Z" fill="#0CDB92"/>
</svg>
