<svg width="32" height="32" viewBox="0 0 32 32" fill="none" xmlns="http://www.w3.org/2000/svg">
<g clip-path="url(#clip0_338_2629)">
<path d="M32 27.5556C32 30.0107 30.0107 32 27.5556 32H4.44444C1.99023 32 0 30.0107 0 27.5556V4.44444C0 1.98933 1.99023 0 4.44444 0H27.5556C30.0107 0 32 1.98933 32 4.44444V27.5556Z" fill="#1976D2"/>
<path d="M26.6113 10.704C26.6522 10.5698 26.6718 10.4454 26.6664 10.3343C26.6531 10.0125 26.4318 9.77869 25.9109 9.77869H23.5838C22.9962 9.77869 22.7251 10.1343 22.5669 10.4907C22.5669 10.4907 21.1162 13.4765 19.4442 15.4453C18.902 16.0151 18.6264 16.0009 18.3331 16.0009C18.1758 16.0009 17.7784 15.8107 17.7784 15.2889V10.68C17.7784 10.0631 17.6247 9.77869 17.1277 9.77869H12.9954C12.6336 9.77869 12.4451 10.0631 12.4451 10.3485C12.4451 10.9414 13.2433 11.0836 13.334 12.7449V15.9654C13.334 16.7476 13.198 16.8898 12.9047 16.8898C12.1135 16.8898 10.5562 14.2231 9.51357 10.728C9.28774 10.04 9.06198 9.77869 8.47444 9.77869H6.1251C5.44688 9.77869 5.33398 10.1111 5.33398 10.4667C5.33398 11.1076 5.86732 14.5725 8.77844 18.5565C10.8896 21.4453 13.6709 23.112 16.1331 23.112C17.6247 23.112 17.7775 22.7325 17.7775 22.1396V19.4978C17.7784 18.7858 17.9411 18.6676 18.4158 18.6676C18.7544 18.6676 19.4451 18.8898 20.7784 20.4454C22.3162 22.2391 22.5953 23.112 23.4771 23.112H25.8042C26.3447 23.112 26.6549 22.8853 26.6673 22.4454C26.67 22.3334 26.654 22.208 26.6176 22.0685C26.4451 21.5565 25.654 20.3049 24.6673 19.112C24.1207 18.4516 23.5811 17.7973 23.3331 17.4418C23.1669 17.2098 23.1038 17.0463 23.1117 16.8898C23.1198 16.7253 23.2051 16.5689 23.3331 16.3503C23.31 16.3503 26.318 12.1271 26.6113 10.704Z" fill="white"/>
</g>
<defs>
<clipPath id="clip0_338_2629">
<rect width="32" height="32" fill="white"/>
</clipPath>
</defs>
</svg>
