<svg width="87" height="40" viewBox="0 0 87 40" fill="none" xmlns="http://www.w3.org/2000/svg">
<rect width="87" height="40" rx="10" fill="#252525"/>
<path d="M23.5783 6.37866C17.6253 6.37866 12.7998 11.2574 12.7998 17.276C12.7998 20.2842 14.0054 23.0079 15.9552 24.9798C17.9056 26.9528 22.5005 29.8079 22.7699 32.8046C22.8103 33.2539 23.1321 33.6219 23.5783 33.6219C24.0245 33.6219 24.3463 33.2539 24.3867 32.8046C24.6561 29.8079 29.251 26.9528 31.2014 24.9798C33.1512 23.0079 34.3568 20.2842 34.3568 17.276C34.3568 11.2574 29.5313 6.37866 23.5783 6.37866Z" fill="#FF4433"/>
<path d="M23.5723 21.0903C25.6558 21.0903 27.3447 19.3826 27.3447 17.2762C27.3447 15.1698 25.6558 13.4622 23.5723 13.4622C21.4888 13.4622 19.7998 15.1698 19.7998 17.2762C19.7998 19.3826 21.4888 21.0903 23.5723 21.0903Z" fill="white"/>
<path d="M54.9434 26.5V24.2412H48.6328V21.9824C49.6641 20.0137 51.3604 17.292 53.7217 13.8174H57.4658V22.1143H59.1182V24.2412H57.4658V26.5H54.9434ZM50.9619 22.123V22.1934H54.9961V15.6982H54.9434C53.9648 17.1279 53.1797 18.3203 52.5879 19.2754C51.9961 20.2246 51.4541 21.1738 50.9619 22.123ZM62.3965 29.2773H60.4717L61.1309 24.3203H63.5742L62.3965 29.2773ZM71.8008 26.5V24.2412H65.4902V21.9824C66.5215 20.0137 68.2178 17.292 70.5791 13.8174H74.3232V22.1143H75.9756V24.2412H74.3232V26.5H71.8008ZM67.8193 22.123V22.1934H71.8535V15.6982H71.8008C70.8223 17.1279 70.0371 18.3203 69.4453 19.2754C68.8535 20.2246 68.3115 21.1738 67.8193 22.123Z" fill="#828282"/>
</svg>
