<svg width="1920" height="411" viewBox="0 0 1920 411" fill="none" xmlns="http://www.w3.org/2000/svg">
<path opacity="0.1" fill-rule="evenodd" clip-rule="evenodd" d="M665.178 358.179C720.386 375.843 785.051 355.963 861.933 318.222C900.39 299.344 941.939 275.978 986.93 250.562L992.417 247.461C1035.86 222.916 1082.48 196.571 1132.62 170.566C1341.63 62.1575 1611.64 -40.3167 1965.74 18.4921L1965.91 17.5056C1611.51 -41.3529 1341.27 61.2202 1132.16 169.678C1082.01 195.692 1035.37 222.045 991.928 246.589L986.438 249.691C941.443 275.111 899.919 298.462 861.493 317.324C784.611 355.065 720.276 374.758 665.483 357.227C610.554 339.652 564.567 310.63 514.744 278.383C512.535 276.953 510.318 275.517 508.093 274.075L508.053 274.049C460.111 242.988 408.166 209.333 341.131 180.327C200.783 119.598 -5.64542 79.2707 -380.061 125.504L-379.939 126.497C-5.63992 80.2776 200.597 120.607 340.734 181.245C407.691 210.217 459.574 243.831 507.521 274.896C509.756 276.344 511.982 277.786 514.201 279.222C564.016 311.464 610.106 340.559 665.178 358.179ZM674.848 368.978C730.048 386.64 794.104 368.207 870.084 332.625C908.087 314.827 949.108 292.721 993.532 268.654L999.666 265.331L999.67 265.328L999.672 265.327L999.679 265.324C1042.36 242.193 1088.17 217.372 1137.45 192.888C1344.04 90.2392 1611.64 -6.47982 1965.74 52.3299L1965.91 51.3434C1611.51 -7.51416 1343.69 89.2946 1137 191.993C1087.71 216.487 1041.88 241.317 999.197 264.447L993.055 267.775C948.627 291.845 907.632 313.936 869.659 331.719C793.688 367.298 729.953 385.559 675.152 368.026C621.049 350.715 574.877 324.282 524.799 295.612L524.798 295.611L522.468 294.277C471.495 265.098 416.326 233.737 344.623 207.467C201.206 154.924 -8.28708 122.775 -382.695 169.008L-382.572 170C-8.26486 123.78 201.058 155.935 344.279 208.406C415.895 234.644 471 265.967 521.971 295.145L524.339 296.501L524.34 296.501L524.341 296.502C574.392 325.156 620.643 351.635 674.848 368.978ZM865.39 360.553C788.887 390.873 724.499 405.776 669.318 388.121C626.221 374.332 585.191 356.83 542.079 338.441L542.071 338.438L542.033 338.421C530.112 333.337 518.033 328.184 505.706 323.024C448.772 299.188 386.537 275.164 310.299 256.794C157.83 220.055 -50.6966 205.918 -384.837 261.218L-385 260.232C-50.7641 204.916 157.903 219.044 310.534 255.821C386.846 274.21 449.137 298.257 506.093 322.101C518.45 327.275 530.554 332.438 542.495 337.531L542.496 337.532L542.499 337.533C585.602 355.919 626.576 373.396 669.623 387.169C724.442 404.708 788.536 389.937 865.022 359.624C903.253 344.472 944.551 325.45 989.303 304.671L993.89 302.541L998.257 300.512L998.259 300.511L998.272 300.505C1040.48 280.9 1085.71 259.889 1134.26 239.199C1342.34 150.543 1611.53 67.783 1965.9 126.638L1965.74 127.624C1611.62 68.8123 1342.63 151.504 1134.66 240.119C1086.11 260.805 1040.88 281.813 998.674 301.421L997.882 301.789L997.785 301.834C995.085 303.088 992.399 304.336 989.724 305.578C944.976 326.355 903.653 345.389 865.39 360.553ZM677.006 401.779C732.169 419.429 796.063 407.993 871.85 382.848C909.753 370.273 950.655 354.259 994.953 336.717C998.879 335.162 1002.83 333.596 1006.81 332.018C1047.74 315.795 1091.52 298.441 1138.47 281.393C1344.53 206.577 1611.61 137.68 1965.74 196.494L1965.91 195.508C1611.54 136.655 1344.28 205.603 1138.13 280.453C1091.17 297.506 1047.37 314.865 1006.44 331.087L1006.44 331.088L1006.3 331.145C1002.37 332.703 998.464 334.251 994.585 335.787C950.284 353.33 909.407 369.334 871.536 381.899C795.776 407.034 732.149 418.372 677.311 400.827C457.257 330.42 142.362 244.598 -382.743 362.291L-382.524 363.266C142.351 245.625 457.057 331.405 677.006 401.779Z" fill="url(#paint0_linear_364_937)"/>
<defs>
<linearGradient id="paint0_linear_364_937" x1="-84.6218" y1="200.808" x2="1940.64" y2="200.808" gradientUnits="userSpaceOnUse">
<stop stop-color="white" stop-opacity="0.17"/>
<stop offset="0.494792" stop-color="white"/>
<stop offset="1" stop-color="white" stop-opacity="0.08"/>
</linearGradient>
</defs>
</svg>
