<svg width="18" height="26" viewBox="0 0 18 26" fill="none" xmlns="http://www.w3.org/2000/svg">
<path d="M1.33924 13.4963L8.13844 24.8757C8.24526 25.0547 8.43778 25.1651 8.64625 25.1667C8.64784 25.1667 8.64983 25.1667 8.65143 25.1667C8.8579 25.1667 9.05002 25.0599 9.15924 24.8845L16.2367 13.505C16.2542 13.4767 16.2693 13.4473 16.2813 13.4174C17.1275 12.0354 17.5739 10.457 17.5739 8.8455C17.5739 4.00259 13.633 0.0625 8.78894 0.0625C3.94644 0.0625 0.00634766 4.00259 0.00634766 8.8455C0.00634766 10.4574 0.45317 12.0362 1.29978 13.4186C1.31094 13.4453 1.3241 13.4712 1.33924 13.4963ZM8.78934 1.25868C12.9742 1.25868 16.3786 4.66226 16.3786 8.84589C16.3786 10.2669 15.9756 11.6592 15.2135 12.8717C15.1951 12.9004 15.18 12.9303 15.1676 12.9614L8.66179 23.4204L2.41744 12.9697C2.40388 12.9359 2.38754 12.9028 2.36761 12.8713C1.6055 11.6588 1.20252 10.2669 1.20252 8.8455C1.20252 4.66226 4.60611 1.25868 8.78934 1.25868Z" fill="#0CDB92"/>
<path d="M8.79042 12.1126C10.5909 12.1126 12.0557 10.6477 12.0557 8.8473C12.0557 7.04686 10.5909 5.58203 8.79042 5.58203C6.98998 5.58203 5.52515 7.04686 5.52515 8.8473C5.52515 10.6477 6.98998 12.1126 8.79042 12.1126ZM8.79042 6.77781C9.93159 6.77781 10.8599 7.70613 10.8599 8.8473C10.8599 9.98848 9.93159 10.9168 8.79042 10.9168C7.64925 10.9168 6.72093 9.98848 6.72093 8.8473C6.72053 7.70613 7.64925 6.77781 8.79042 6.77781Z" fill="#0CDB92"/>
</svg>
