<svg width="228" height="27" viewBox="0 0 228 27" fill="none" xmlns="http://www.w3.org/2000/svg">
<path d="M9.43111 16.8846C7.45353 16.8846 6.42667 15.8958 6.42667 14.5644C6.42667 13.3101 7.45353 12.3213 9.24077 12.3213H14.9451V15.2116C13.6137 16.0481 11.7123 16.8846 9.43111 16.8846ZM11.1422 4.22068C13.6899 4.22068 14.9451 5.13334 14.9451 8.09971H8.78492C3.8029 8.09971 0 10.2676 0 14.5644C0 18.8622 3.8029 21.1053 8.78492 21.1053C11.7123 21.1053 13.8041 20.2307 15.5152 19.0135V19.5845C15.5152 20.2307 16.01 20.7256 16.6562 20.7256H20.2307C20.8769 20.7256 21.3718 20.2307 21.3718 19.5845V8.09971C21.3718 2.28212 17.075 0 11.599 0C5.43788 0 1.48271 1.36946 1.48271 5.32368C1.48271 5.97082 1.97758 6.46474 2.62377 6.46474H5.39981C6.35053 6.46474 7.03479 6.08406 7.52966 5.47594C8.17585 4.67749 9.58338 4.22068 11.1422 4.22068ZM36.7861 4.48715C39.8286 4.48715 41.0829 6.35053 41.0829 10.5341C41.0829 14.7548 39.8286 16.6182 36.4054 16.6182C35.4547 16.6182 33.9339 16.3517 32.3751 15.8578V6.1602C33.7055 5.32368 35.4166 4.48715 36.7861 4.48715ZM38.3069 0C35.607 0 33.5152 0.87459 31.8041 2.09178V1.52078C31.8041 0.87459 31.3101 0.38067 30.6639 0.38067H27.0885C26.4423 0.38067 25.9484 0.87459 25.9484 1.52078V25.8589C25.9484 26.5051 26.4423 27 27.0885 27H31.234C31.8802 27 32.3751 26.5051 32.3751 25.8589V20.1546C33.9339 20.6495 35.4547 21.1053 37.7368 21.1053C43.6696 21.1053 47.6999 17.5308 47.6999 10.5341C47.6999 3.5745 43.7067 0 38.3069 0V0ZM61.9646 4.48715C65.0071 4.48715 66.2614 6.35053 66.2614 10.5341C66.2614 14.7548 65.0071 16.6182 61.5849 16.6182C60.6341 16.6182 59.1124 16.3517 57.5536 15.8578V6.1602C58.884 5.32368 60.5961 4.48715 61.9646 4.48715ZM63.4863 0C60.7854 0 58.6946 0.87459 56.9835 2.09178V1.52078C56.9835 0.87459 56.4886 0.38067 55.8424 0.38067H52.2679C51.6208 0.38067 51.1269 0.87459 51.1269 1.52078V25.8589C51.1269 26.5051 51.6208 27 52.2679 27H56.4125C57.0587 27 57.5536 26.5051 57.5536 25.8589V20.1546C59.1124 20.6495 60.6341 21.1053 62.9153 21.1053C68.848 21.1053 72.8784 17.5308 72.8784 10.5341C72.8784 3.5745 68.8861 0 63.4863 0V0ZM92.4762 6.00888C93.2747 5.20947 93.8067 4.56329 93.8067 3.30898V1.52078C93.8067 0.87459 93.3128 0.38067 92.6666 0.38067H75.7439C75.0977 0.38067 74.6028 0.87459 74.6028 1.52078V3.72676C74.6028 4.37295 75.0977 4.86782 75.7439 4.86782H85.707L75.9342 15.0974C75.1358 15.8958 74.6028 16.542 74.6028 17.7973V19.5845C74.6028 20.2307 75.0977 20.7256 75.7439 20.7256H92.8179C93.465 20.7256 93.959 20.2307 93.959 19.5845V17.3786C93.959 16.7324 93.465 16.2384 92.8179 16.2384H82.3609L92.4762 6.00888ZM107.254 16.8846C104.021 16.8846 102.462 15.0213 102.462 10.5341C102.462 6.04695 104.021 4.22068 107.254 4.22068C110.486 4.22068 112.045 6.04695 112.045 10.5341C112.045 15.0213 110.486 16.8846 107.254 16.8846ZM107.254 0C100.066 0 96.0355 3.53643 96.0355 10.5341C96.0355 17.5308 100.066 21.1053 107.254 21.1053C114.441 21.1053 118.471 17.5308 118.471 10.5341C118.471 3.53643 114.441 0 107.254 0V0ZM136.854 19.5845C136.854 20.2307 137.349 20.7256 137.995 20.7256H142.139C142.787 20.7256 143.281 20.2307 143.281 19.5845V8.93624C143.281 2.62377 139.782 0 134.838 0C131.986 0 130.086 1.21719 128.335 2.6999V1.52078C128.335 0.87459 127.841 0.38067 127.195 0.38067H123.05C122.404 0.38067 121.909 0.87459 121.909 1.52078V19.5845C121.909 20.2307 122.404 20.7256 123.05 20.7256H127.195C127.841 20.7256 128.335 20.2307 128.335 19.5845V7.14899C129.705 5.78048 131.454 4.48715 133.317 4.48715C135.409 4.48715 136.854 5.78048 136.854 8.93624V19.5845ZM167.225 12.5107C167.871 12.5107 168.366 12.0168 168.366 11.3706V10.3057C168.366 3.61256 164.296 0 157.527 0C150.797 0 146.689 3.72676 146.689 10.5722C146.689 17.4547 150.759 21.1053 157.527 21.1053C163.612 21.1053 167.681 19.7368 167.681 15.7816C167.681 15.1355 167.187 14.6406 166.54 14.6406H163.764C162.814 14.6406 162.129 15.0213 161.635 15.6294C160.988 16.4278 159.581 16.8846 157.984 16.8846C154.865 16.8846 153.497 15.5532 153.23 12.5107H167.225ZM157.527 4.22068C160.341 4.22068 161.711 5.74241 161.825 8.59459H153.192C153.344 5.74241 154.789 4.22068 157.527 4.22068ZM171.023 18.4054C171.023 20.0023 171.935 20.915 173.532 20.915H175.815C177.411 20.915 178.324 20.0023 178.324 18.4054V17.2263C178.324 15.6294 177.411 14.7167 175.815 14.7167H173.532C171.935 14.7167 171.023 15.6294 171.023 17.2263V18.4054ZM192.488 4.48715C194.427 4.48715 195.835 5.20947 196.481 6.23633C197.014 7.07286 197.66 7.60579 198.611 7.60579H201.387C202.033 7.60579 202.527 7.11092 202.527 6.46474C202.527 2.12985 198.573 0 192.032 0C185.034 0 181.004 3.5745 181.004 10.5722C181.004 17.5308 184.996 21.1053 192.222 21.1053C198.763 21.1053 202.717 18.9764 202.717 14.6406C202.717 13.9944 202.224 13.4995 201.576 13.4995H198.801C197.851 13.4995 197.203 14.0325 196.671 14.869C196.025 15.8958 194.618 16.6182 192.678 16.6182C188.875 16.6182 187.621 14.7548 187.621 10.5722C187.621 6.35053 188.875 4.48715 192.488 4.48715ZM215.841 16.8846C212.608 16.8846 211.049 15.0213 211.049 10.5341C211.049 6.04695 212.608 4.22068 215.841 4.22068C219.073 4.22068 220.633 6.04695 220.633 10.5341C220.633 15.0213 219.073 16.8846 215.841 16.8846ZM215.841 0C208.654 0 204.623 3.53643 204.623 10.5341C204.623 17.5308 208.654 21.1053 215.841 21.1053C223.028 21.1053 227.059 17.5308 227.059 10.5341C227.059 3.53643 223.028 0 215.841 0V0Z" fill="white"/>
</svg>
