<svg width="64" height="64" viewBox="0 0 64 64" fill="none" xmlns="http://www.w3.org/2000/svg">
<rect x="30" y="8" width="20" height="2" rx="1" fill="#0CDB92"/>
<rect x="30" y="20" width="20" height="2" rx="1" fill="#0CDB92"/>
<rect x="32" y="8" width="14" height="2" rx="1" transform="rotate(90 32 8)" fill="#0CDB92"/>
<rect x="50" y="8" width="14" height="2" rx="1" transform="rotate(90 50 8)" fill="#0CDB92"/>
<rect x="41" y="20" width="5" height="2" rx="1" transform="rotate(90 41 20)" fill="#0CDB92"/>
<rect x="4" y="24" width="56" height="2" rx="1" fill="#696969"/>
<rect x="8" y="50" width="48" height="2" rx="1" fill="#696969"/>
<rect x="8" y="52" width="28" height="2" rx="1" transform="rotate(-90 8 52)" fill="#696969"/>
<rect x="54" y="52" width="28" height="2" rx="1" transform="rotate(-90 54 52)" fill="#696969"/>
<rect x="48" y="57" width="7" height="2" rx="1" transform="rotate(-90 48 57)" fill="#696969"/>
<rect x="14" y="57" width="7" height="2" rx="1" transform="rotate(-90 14 57)" fill="#696969"/>
<rect x="8" y="32" width="48" height="2" rx="1" fill="#0CDB92"/>
</svg>
