<svg width="64" height="64" viewBox="0 0 64 64" fill="none" xmlns="http://www.w3.org/2000/svg">
<rect x="6" y="52" width="52" height="2" rx="1" fill="#696969"/>
<rect x="8" y="4" width="50" height="2" rx="0.999999" transform="rotate(90 8 4)" fill="#696969"/>
<rect x="13" y="53" width="8" height="2" rx="1" transform="rotate(90 13 53)" fill="#696969"/>
<rect x="26" y="42" width="12" height="2" rx="1" transform="rotate(90 26 42)" fill="#696969"/>
<rect x="26" y="44" width="9" height="2" rx="1" transform="rotate(-180 26 44)" fill="#696969"/>
<rect x="19" y="42" width="12" height="2" rx="1" transform="rotate(90 19 42)" fill="#696969"/>
<rect x="35" y="10" width="12" height="2" rx="1" transform="rotate(90 35 10)" fill="#696969"/>
<rect x="35" y="12" width="9" height="2" rx="1" transform="rotate(-180 35 12)" fill="#696969"/>
<rect x="28" y="10" width="12" height="2" rx="1" transform="rotate(90 28 10)" fill="#696969"/>
<rect x="39" y="42" width="12" height="2" rx="1" transform="rotate(90 39 42)" fill="#696969"/>
<rect x="39" y="44" width="9" height="2" rx="1" transform="rotate(-180 39 44)" fill="#696969"/>
<rect x="32" y="42" width="12" height="2" rx="1" transform="rotate(90 32 42)" fill="#696969"/>
<rect x="50" y="26" width="12" height="2" rx="1" transform="rotate(90 50 26)" fill="#0CDB92"/>
<rect x="50" y="28" width="9" height="2" rx="1" transform="rotate(-180 50 28)" fill="#0CDB92"/>
<rect x="43" y="26" width="12" height="2" rx="1" transform="rotate(90 43 26)" fill="#0CDB92"/>
<rect x="37" y="26" width="12" height="2" rx="1" transform="rotate(90 37 26)" fill="#0CDB92"/>
<rect x="37" y="28" width="9" height="2" rx="1" transform="rotate(-180 37 28)" fill="#0CDB92"/>
<rect x="30" y="26" width="12" height="2" rx="1" transform="rotate(90 30 26)" fill="#0CDB92"/>
<rect x="22" y="10" width="12" height="2" rx="1" transform="rotate(90 22 10)" fill="#0CDB92"/>
<rect x="22" y="12" width="9" height="2" rx="1" transform="rotate(-180 22 12)" fill="#0CDB92"/>
<rect x="15" y="10" width="12" height="2" rx="1" transform="rotate(90 15 10)" fill="#0CDB92"/>
<rect x="53" y="53" width="8" height="2" rx="1" transform="rotate(90 53 53)" fill="#696969"/>
<rect x="58" y="4" width="50" height="2" rx="0.999999" transform="rotate(90 58 4)" fill="#696969"/>
<rect x="6" y="4" width="52" height="2" rx="1" fill="#696969"/>
<rect x="6" y="36" width="52" height="2" rx="1" fill="#696969"/>
<rect x="6" y="20" width="52" height="2" rx="1" fill="#696969"/>
</svg>
