<svg width="64" height="64" viewBox="0 0 64 64" fill="none" xmlns="http://www.w3.org/2000/svg">
<path d="M45.3216 13.0946C41.1278 12.1775 36.7069 16.0442 35.4659 21.7157C35.3523 22.2316 35.6795 22.7418 36.1954 22.8547C36.2643 22.8693 36.3338 22.877 36.4008 22.877C36.8402 22.877 37.2369 22.5715 37.3345 22.1245C38.351 17.4836 41.7566 14.2719 44.9135 14.9632C45.4307 15.078 45.939 14.7495 46.0525 14.2329C46.1654 13.717 45.8382 13.2068 45.3216 13.0946Z" fill="#0CDB92"/>
<path d="M50.8348 8.1372C47.4643 6.57407 43.5236 6.81387 39.7367 8.81257C37.7813 9.84445 35.9943 11.2941 34.4465 13.0491C31.9912 6.11489 26.3171 1.58879 20.4173 2.11238C12.8836 2.77692 7.44871 11.2264 8.30329 20.9489C8.9978 28.8334 13.4901 35.3672 19.3357 37.1318L19.837 42.8224C19.881 43.3199 20.2987 43.6949 20.7891 43.6949C20.8172 43.6949 20.8453 43.6936 20.874 43.6911L22.8841 43.5144C22.3733 45.2478 21.7024 48.6878 23.3197 51.4378C24.8554 54.0481 23.7738 57.358 23.3669 58.6035C23.2974 58.8165 23.2451 58.9817 23.217 59.0914C23.0869 59.6035 23.3963 60.1239 23.9084 60.254C23.9874 60.2738 24.0672 60.2834 24.145 60.2834C24.5723 60.2834 24.9613 59.9957 25.0716 59.5621C25.0927 59.4804 25.1341 59.3573 25.1864 59.1979C25.6666 57.7273 26.9421 53.8211 24.9696 50.4678C23.4492 47.883 24.6443 44.1923 24.9575 43.3326L27.2285 43.133C27.7546 43.0871 28.1443 42.6228 28.0977 42.0967L27.5984 36.406C28.5282 35.9328 29.4032 35.3174 30.217 34.577C30.789 35.8372 31.525 36.9832 32.4408 37.9558L30.0371 43.1375C29.9306 43.3671 29.9191 43.6305 30.0072 43.8683C30.0945 44.1069 30.2731 44.3007 30.5027 44.4079L32.305 45.2433C31.8656 46.464 30.583 50.6795 32.4944 53.9269C34.0282 56.5379 32.9485 59.8465 32.5416 61.092C32.4721 61.3057 32.4191 61.4721 32.3917 61.5818C32.2616 62.0939 32.5715 62.6137 33.0843 62.7438C33.1627 62.7636 33.2418 62.7731 33.3196 62.7731C33.7469 62.7731 34.1366 62.4849 34.2463 62.0512C34.2667 61.9696 34.3088 61.8458 34.3611 61.6858C34.8407 60.2158 36.1149 56.3115 34.1436 52.9569C32.7342 50.5609 33.6583 47.214 34.0505 46.052L36.2915 47.0909C36.4216 47.1508 36.5588 47.1795 36.6933 47.1795C37.0543 47.1795 37.3999 46.9748 37.5613 46.6253L39.9643 41.4443C46.0638 41.7587 52.5108 37.1388 55.8366 29.9667C59.9399 21.1109 57.6969 11.3183 50.8348 8.1372ZM26.2068 34.945C25.828 35.1082 25.5965 35.496 25.6328 35.9067L26.1073 41.3103L21.659 41.7013L21.1826 36.2976C21.1463 35.8863 20.8504 35.5444 20.4486 35.4507C15.1546 34.2077 10.8485 28.0381 10.2089 20.7812C9.44678 12.1097 14.1017 4.59004 20.5851 4.01798C25.93 3.54668 31.0932 8.09191 33.0161 14.8667C32.2361 15.9713 31.5327 17.1556 30.944 18.426C28.7062 23.2506 28.2687 28.3978 29.488 32.6083C28.4982 33.6376 27.3988 34.4303 26.2068 34.945ZM54.0994 29.1619C51.0388 35.7626 44.8967 40.1063 39.486 39.4851C39.074 39.4379 38.6825 39.6586 38.5096 40.0329L36.2284 44.9525L32.1755 43.0737L34.4574 38.1528C34.6308 37.7785 34.5454 37.3346 34.2437 37.0521C30.2731 33.3327 29.6156 25.8379 32.68 19.2296C33.2782 17.94 33.9995 16.7462 34.8069 15.6486C34.8387 15.6097 34.8687 15.5702 34.8942 15.5268C36.4931 13.3878 38.449 11.6544 40.6301 10.5039C43.8782 8.79089 47.2162 8.56704 50.0306 9.87251C55.9348 12.6104 57.7607 21.264 54.0994 29.1619Z" fill="#696969"/>
<path d="M45.0831 55.4655L48.7891 54.968L51.2942 57.7391C51.4778 57.9425 51.7368 58.0541 52.0033 58.0541C52.0907 58.0541 52.1781 58.042 52.2648 58.0178C52.615 57.9183 52.8783 57.6287 52.944 57.2703L53.6188 53.5949L57.0333 52.0618C57.3656 51.9125 57.5843 51.5879 57.5977 51.2244C57.6111 50.8602 57.4166 50.5203 57.0965 50.3475L53.8069 48.572L53.4058 44.8539C53.3662 44.4923 53.1258 44.1836 52.7833 44.0579C52.4408 43.9317 52.0582 44.012 51.7942 44.2639L49.0869 46.8437L45.4275 46.0752C45.0716 45.9986 44.703 46.1345 44.4785 46.4208C44.2533 46.7072 44.2113 47.0968 44.3688 47.4253L45.9848 50.7965L44.1264 54.0426C43.9453 54.3583 43.96 54.7493 44.1628 55.0522C44.3656 55.3532 44.724 55.5127 45.0831 55.4655ZM47.9268 50.4221L46.9313 48.3462L49.1857 48.8194C49.4938 48.8838 49.8139 48.7926 50.0429 48.5758L51.7113 46.9859L51.9587 49.2773C51.9925 49.5905 52.1781 49.8666 52.4549 50.0165L54.4817 51.1102L52.3771 52.0554C52.0901 52.1842 51.8847 52.4457 51.828 52.755L51.4128 55.0171L49.8707 53.3111C49.6883 53.109 49.43 52.9961 49.1615 52.9961C49.1194 52.9961 49.0767 52.9986 49.0346 53.0044L46.7495 53.3111L47.8943 51.3105C48.0499 51.0375 48.0627 50.7053 47.9268 50.4221Z" fill="#0CDB92"/>
<path d="M13.5534 43.0968C13.3939 42.7696 13.0617 42.5611 12.6981 42.5592L10.1197 42.5464L8.67391 40.4176C8.46919 40.1166 8.11141 39.9597 7.75044 40.0075C7.39011 40.0579 7.08909 40.3085 6.97429 40.6542L6.16371 43.0993L3.68858 43.8232C3.33909 43.9252 3.07761 44.2173 3.01447 44.5757C2.95133 44.9342 3.09802 45.2977 3.39139 45.5126L5.46919 47.0349L5.3882 49.6127C5.37608 49.9769 5.57251 50.3155 5.89394 50.4871C6.03552 50.5624 6.18986 50.6 6.34419 50.6C6.54062 50.6 6.73577 50.5394 6.90159 50.4208L8.99534 48.9189L11.4188 49.7888C11.7606 49.9118 12.1439 49.8302 12.4067 49.5764C12.6682 49.3238 12.7645 48.9437 12.6535 48.5968L11.8691 46.1395L13.4501 44.1019C13.672 43.8143 13.7128 43.4246 13.5534 43.0968ZM9.89266 46.2422L10.2409 47.3328L9.16881 46.9482C8.87289 46.8417 8.54381 46.8876 8.28807 47.0713L7.36077 47.7358L7.39713 46.5917C7.40733 46.276 7.26065 45.9763 7.00682 45.79L6.08654 45.1153L7.1822 44.7945C7.48386 44.7065 7.72302 44.4756 7.82187 44.1778L8.18029 43.0962L8.81996 44.0381C8.99726 44.299 9.29126 44.4558 9.60631 44.4571L10.7479 44.4629L10.0476 45.3653C9.85503 45.614 9.797 45.9425 9.89266 46.2422Z" fill="#0CDB92"/>
</svg>
