<svg width="64" height="64" viewBox="0 0 64 64" fill="none" xmlns="http://www.w3.org/2000/svg">
<path d="M41.7922 7.78259C41.6545 7.69618 41.4971 7.64616 41.3348 7.6372C41.1725 7.62824 41.0106 7.66065 40.8642 7.73139L20.9858 17.2802H4.1602C3.90559 17.2802 3.66141 17.3813 3.48137 17.5614C3.30134 17.7414 3.2002 17.9856 3.2002 18.2402V36.1602C3.2002 36.1602 3.2002 36.1986 3.2002 36.2178C3.20158 36.2851 3.21235 36.3519 3.2322 36.4162C3.2322 36.4162 3.2322 36.4738 3.2322 36.5058C3.24507 36.5408 3.26003 36.575 3.277 36.6082V36.6594L16.6658 59.0594C16.7512 59.2021 16.8721 59.3202 17.0169 59.4021C17.1616 59.484 17.3251 59.5269 17.4914 59.5266H26.5602C26.7301 59.5269 26.8971 59.4821 27.044 59.3968C27.191 59.3114 27.3126 59.1886 27.3966 59.0409C27.4805 58.8932 27.5238 58.7258 27.5219 58.5559C27.52 58.386 27.473 58.2196 27.3858 58.0738L14.8674 37.1202H21.037L40.877 46.6242C41.0227 46.6916 41.183 46.7215 41.3433 46.7109C41.5035 46.7004 41.6585 46.6498 41.7941 46.5638C41.9298 46.4779 42.0417 46.3593 42.1196 46.2189C42.1975 46.0785 42.239 45.9208 42.2402 45.7602V8.59539C42.2403 8.43308 42.1993 8.2734 42.1209 8.13125C42.0426 7.98911 41.9295 7.86915 41.7922 7.78259ZM5.1202 19.2002H20.4802V35.2002H5.1202V19.2002ZM24.8706 57.6002H18.093L5.8498 37.1202H12.6274L24.8706 57.6002ZM40.3202 44.2306L22.4002 35.6482V18.733L40.3202 10.1186V44.2306Z" fill="#696969"/>
<path d="M50.8797 21.4398C51.0824 21.4394 51.2796 21.3744 51.4429 21.2542L58.4829 16.1342C58.6891 15.9849 58.8276 15.7597 58.8678 15.5082C58.908 15.2568 58.8466 14.9997 58.6973 14.7934C58.5479 14.5872 58.3227 14.4487 58.0713 14.4085C57.8198 14.3683 57.5627 14.4297 57.3565 14.579L50.3165 19.699C50.1535 19.8184 50.0323 19.9862 49.9703 20.1785C49.9082 20.3708 49.9084 20.5778 49.9708 20.7699C50.0332 20.9621 50.1546 21.1297 50.3178 21.2488C50.481 21.3679 50.6776 21.4325 50.8797 21.4334V21.4398Z" fill="#0CDB92"/>
<path d="M60.4799 26.2402H50.8799C50.6253 26.2402 50.3811 26.3414 50.2011 26.5214C50.0211 26.7014 49.9199 26.9456 49.9199 27.2002C49.9199 27.4548 50.0211 27.699 50.2011 27.8791C50.3811 28.0591 50.6253 28.1602 50.8799 28.1602H60.4799C60.7345 28.1602 60.9787 28.0591 61.1587 27.8791C61.3388 27.699 61.4399 27.4548 61.4399 27.2002C61.4399 26.9456 61.3388 26.7014 61.1587 26.5214C60.9787 26.3414 60.7345 26.2402 60.4799 26.2402Z" fill="#0CDB92"/>
<path d="M58.4833 38.2654L51.4433 33.1454C51.3411 33.0715 51.2255 33.0183 51.1028 32.9891C50.9802 32.9598 50.853 32.955 50.7285 32.9749C50.604 32.9948 50.4846 33.0391 50.3772 33.1051C50.2698 33.1712 50.1764 33.2577 50.1025 33.3598C50.0285 33.4619 49.9754 33.5776 49.9461 33.7003C49.9169 33.8229 49.9121 33.9501 49.932 34.0746C49.9519 34.1991 49.9961 34.3185 50.0622 34.4259C50.1282 34.5333 50.2147 34.6267 50.3169 34.7006L57.3569 39.8206C57.459 39.8946 57.5747 39.9477 57.6973 39.977C57.8199 40.0062 57.9472 40.011 58.0717 39.9911C58.1962 39.9712 58.3155 39.927 58.4229 39.8609C58.5303 39.7949 58.6237 39.7083 58.6977 39.6062C58.7716 39.5041 58.8247 39.3884 58.854 39.2658C58.8832 39.1431 58.8881 39.0159 58.8681 38.8914C58.8482 38.7669 58.804 38.6475 58.738 38.5401C58.6719 38.4327 58.5854 38.3394 58.4833 38.2654Z" fill="#0CDB92"/>
</svg>
