<svg width="64" height="64" viewBox="0 0 64 64" fill="none" xmlns="http://www.w3.org/2000/svg">
<path d="M43.4657 7.8125H20.311C17.2651 7.8125 14.7861 10.2902 14.7861 13.3348V50.4384C14.7861 53.4836 17.2651 55.9606 20.311 55.9606H43.4657C46.5109 55.9606 48.9886 53.4836 48.9886 50.4384V13.3348C48.9886 10.2895 46.5116 7.8125 43.4657 7.8125ZM47.0754 50.4384C47.0754 52.4288 45.4561 54.0474 43.4657 54.0474H20.311C18.3193 54.0474 16.6994 52.4281 16.6994 50.4384V13.3348C16.6994 11.345 18.3193 9.72575 20.311 9.72575H43.4657C45.4561 9.72575 47.0754 11.345 47.0754 13.3348V50.4384Z" fill="#696969"/>
<path d="M38.7513 13.1523H24.8956C24.3675 13.1523 23.939 13.5809 23.939 14.109C23.939 14.6377 24.3675 15.0656 24.8956 15.0656H38.7513C39.2794 15.0656 39.7079 14.6377 39.7079 14.109C39.7079 13.5809 39.2794 13.1523 38.7513 13.1523Z" fill="#0CDB92"/>
<path d="M31.8937 45.2715C31.8892 45.2715 31.8848 45.2715 31.8803 45.2715C31.1022 45.2734 30.3727 45.5782 29.8242 46.1305C29.2757 46.6828 28.9754 47.4156 28.9785 48.1917C28.9792 48.9672 29.2834 49.6968 29.8338 50.2447C30.3835 50.7918 31.1131 51.0929 31.8899 51.0929C31.8937 51.0929 31.8969 51.0929 31.9007 51.0929C32.6788 51.0897 33.4083 50.7835 33.9562 50.2313C34.5034 49.679 34.8031 48.9462 34.7993 48.1688C34.7961 47.3926 34.4912 46.6637 33.9396 46.1159C33.3905 45.5712 32.6641 45.2715 31.8937 45.2715ZM32.8854 48.179C32.8867 48.4449 32.7846 48.6956 32.5971 48.8843C32.409 49.0737 32.1584 49.1783 31.8931 49.1796C31.6392 49.1764 31.3733 49.0769 31.1845 48.8882C30.9964 48.7013 30.8924 48.4526 30.8924 48.186C30.8911 47.9188 30.9938 47.6675 31.182 47.4781C31.3695 47.2893 31.6201 47.1847 31.8873 47.1841C31.8886 47.1841 31.8905 47.1841 31.8918 47.1841C32.1552 47.1841 32.4039 47.2868 32.5914 47.473C32.7808 47.6605 32.8854 47.9105 32.886 48.1764C32.8854 48.1777 32.8854 48.1783 32.8854 48.179Z" fill="#0CDB92"/>
</svg>
