<svg width="64" height="64" viewBox="0 0 64 64" fill="none" xmlns="http://www.w3.org/2000/svg">
<path d="M51.4419 34.5972C51.4329 34.5972 51.4239 34.5972 51.415 34.5979C51.3759 34.596 47.9769 34.6491 46.3507 30.8244C45.8982 29.7582 45.7433 28.5595 45.6927 27.9643C46.6982 26.8168 47.2479 25.3627 47.2479 23.8228C47.2479 20.644 44.8767 18.0155 41.8111 17.5944V11.5713C41.8111 11.0408 41.3811 10.6113 40.8511 10.6113H9.23258C8.70202 10.6113 8.27258 11.0408 8.27258 11.5713V52.4315C8.27258 52.9614 8.70202 53.3915 9.23258 53.3915H40.8505C41.3804 53.3915 41.8105 52.9614 41.8105 52.4315V48.0321H53.3759C53.9059 48.0321 54.3359 47.602 54.3359 47.0721V43.0881H54.7673C55.2972 43.0881 55.7273 42.658 55.7273 42.1281V38.884C55.7273 36.5198 53.8047 34.5972 51.4419 34.5972ZM45.3273 23.8222C45.3273 24.9966 44.8671 26.1 44.0319 26.9281C43.8451 27.1137 43.742 27.3684 43.7484 27.6328C43.751 27.7185 43.8079 29.748 44.5836 31.5752C46.6713 36.484 51.0892 36.5108 51.4502 36.5172C52.7507 36.5217 53.8079 37.5816 53.8079 38.8833V41.1675H53.5718C53.5091 41.1547 53.4438 41.1476 53.3766 41.1476C53.3094 41.1476 53.2447 41.1547 53.1814 41.1675H28.0966V38.8833C28.0966 37.5873 29.1436 36.5307 30.4358 36.5172C30.9619 36.5435 35.0662 36.5851 37.2262 31.7121C37.9705 30.0417 38.1215 27.7396 38.1279 27.643C38.1446 27.3691 38.0441 27.1003 37.8502 26.9057C37.0303 26.082 36.5791 24.987 36.5791 23.8228C36.5791 21.4113 38.5407 19.4491 40.9523 19.4491C43.3651 19.4484 45.3273 21.4107 45.3273 23.8222ZM39.8905 51.4708H10.1926V12.5307H39.8905V17.6251C36.9254 18.132 34.6591 20.7144 34.6591 23.8222C34.6591 25.3428 35.1948 26.7816 36.1766 27.9214C36.0953 28.6772 35.8854 30.0027 35.4713 30.932C33.7772 34.756 30.6623 34.6094 30.5356 34.5998C30.5107 34.5979 30.4857 34.5966 30.4607 34.5966C28.0985 34.5966 26.1766 36.5192 26.1766 38.8827V42.1268C26.1766 42.6568 26.606 43.0868 27.1366 43.0868H27.6684L27.6908 47.076C27.6934 47.604 28.1228 48.0302 28.6508 48.0302H39.8905V51.4708ZM52.4159 46.1115H29.6057L29.5891 43.0875H52.4159V46.1115Z" fill="#696969"/>
<path d="M24.2476 19.2695H13.6224C13.0918 19.2695 12.6624 19.699 12.6624 20.2295C12.6624 20.7601 13.0918 21.1895 13.6224 21.1895H24.2476C24.7782 21.1895 25.2076 20.7601 25.2076 20.2295C25.2076 19.699 24.7782 19.2695 24.2476 19.2695Z" fill="#0CDB92"/>
<path d="M24.2476 24.0586H13.6224C13.0918 24.0586 12.6624 24.488 12.6624 25.0186C12.6624 25.5492 13.0918 25.9786 13.6224 25.9786H24.2476C24.7782 25.9786 25.2076 25.5492 25.2076 25.0186C25.2076 24.488 24.7782 24.0586 24.2476 24.0586Z" fill="#0CDB92"/>
</svg>
