<svg width="64" height="64" viewBox="0 0 64 64" fill="none" xmlns="http://www.w3.org/2000/svg">
<path d="M54.8788 10.2402H29.922C29.3915 10.2402 28.962 10.6697 28.962 11.2002V23.837L8.79626 31.0972C8.41546 31.2342 8.16138 31.5958 8.16138 32.0002V52.7964C8.16138 53.3263 8.59082 53.7564 9.12138 53.7564L29.922 53.759H54.8788C55.4087 53.759 55.8388 53.3289 55.8388 52.799V11.2002C55.8388 10.6697 55.4087 10.2402 54.8788 10.2402ZM10.0814 32.6754L28.962 25.8774V51.839L10.0814 51.8364V32.6754ZM53.9188 51.839H30.882V12.1602H53.9188V51.839Z" fill="#696969"/>
<path d="M38.2376 28.7993H46.557C47.0869 28.7993 47.517 28.3698 47.517 27.8393V19.5205C47.517 18.99 47.0869 18.5605 46.557 18.5605H38.2376C37.7077 18.5605 37.2776 18.99 37.2776 19.5205V27.8393C37.2776 28.3698 37.7077 28.7993 38.2376 28.7993ZM39.1976 20.4805H45.597V26.8793H39.1976V20.4805Z" fill="#0CDB92"/>
<path d="M46.5594 35.1992H38.242C37.7121 35.1992 37.282 35.6293 37.282 36.1592V44.4779C37.282 45.0079 37.7121 45.4379 38.242 45.4379H46.5594C47.0893 45.4379 47.5194 45.0079 47.5194 44.4779V36.1592C47.5194 35.6293 47.0893 35.1992 46.5594 35.1992ZM45.5994 43.5179H39.202V37.1192H45.5994V43.5179Z" fill="#0CDB92"/>
</svg>
