<svg width="64" height="64" viewBox="0 0 64 64" fill="none" xmlns="http://www.w3.org/2000/svg">
<path d="M31.997 34.3506C18.7648 34.3506 8 45.1147 8 58.3463C8 58.8749 8.42901 59.3039 8.95761 59.3039H46.5602C46.589 59.3064 46.6171 59.3128 46.6464 59.3128C46.6758 59.3128 46.7039 59.3064 46.7326 59.3039H55.0299C55.5585 59.3039 55.9875 58.8749 55.9875 58.3463C55.9882 45.1147 45.226 34.3506 31.997 34.3506ZM17.8953 41.3749C19.9548 39.6608 22.3283 38.3144 24.9177 37.4354V46.855C24.9177 47.3836 25.3467 47.8126 25.8753 47.8126H38.005C38.5336 47.8126 38.9626 47.3836 38.9626 46.855V37.3983C41.4243 38.2193 43.6964 39.4585 45.6888 41.0385V57.3887H17.8953V41.3749ZM37.0474 36.8544V45.8974H26.8329V36.8799C28.4902 36.4809 30.219 36.2658 31.997 36.2658C33.7347 36.2658 35.4246 36.4733 37.0474 36.8544ZM15.98 43.1618V57.3887H9.93564C10.1718 51.8901 12.428 46.9061 15.98 43.1618ZM47.604 57.3887V42.7533C51.3859 46.5403 53.808 51.6852 54.0525 57.3887H47.604Z" fill="#696969"/>
<path d="M31.7908 31.5752C39.3942 31.5752 45.581 25.391 45.581 17.7902C45.581 10.1868 39.3948 4 31.7908 4C24.1868 4 18 10.1861 18 17.7902C18 25.391 24.1868 31.5752 31.7908 31.5752ZM31.7908 5.91521C36.8712 5.91521 41.2034 9.12766 42.8958 13.6227C41.0489 12.8157 37.8276 11.1412 35.7917 10.0316C35.5223 9.88545 35.1999 9.87587 34.9241 10.0074C34.8768 10.0297 30.1635 12.2584 27.0985 13.5352L26.8074 13.6571C24.483 14.6288 22.9891 15.25 20.1316 15.5634C21.178 10.0776 26.0043 5.91521 31.7908 5.91521ZM19.9299 17.5105C23.3326 17.1837 25.0371 16.4738 27.5461 15.4249L27.8365 15.3042C30.387 14.2413 34.0495 12.5342 35.3033 11.9462C36.8865 12.8004 41.8252 15.4274 43.4991 15.8941C43.5994 16.5134 43.6651 17.1435 43.6651 17.7908C43.6651 24.3357 38.3383 29.6606 31.7902 29.6606C25.2421 29.6606 19.9146 24.3357 19.9146 17.7908C19.9152 17.6957 19.9273 17.6044 19.9299 17.5105Z" fill="#696969"/>
<rect x="15.9004" y="59.2998" width="19.2" height="2" rx="1" transform="rotate(-90 15.9004 59.2998)" fill="#0CDB92"/>
<rect x="37" y="48" width="12.7" height="2" rx="1" transform="rotate(-90 37 48)" fill="#0CDB92"/>
<rect x="25" y="46" width="14" height="2" rx="1" fill="#0CDB92"/>
<rect x="24.7998" y="48" width="12.7" height="2" rx="1" transform="rotate(-90 24.7998 48)" fill="#0CDB92"/>
<rect x="45.5996" y="59.2998" width="19.6" height="2" rx="1" transform="rotate(-90 45.5996 59.2998)" fill="#0CDB92"/>
</svg>
