<svg width="64" height="64" viewBox="0 0 64 64" fill="none" xmlns="http://www.w3.org/2000/svg">
<path d="M30.4132 29.7819H24.5688C23.0328 29.7819 21.7828 28.5327 21.7828 26.9973C21.7828 25.7583 22.4619 23.0594 23.0609 20.6779C23.5672 18.6664 24.0452 16.7663 24.2238 15.4325C24.4158 14.0111 23.971 12.5992 22.972 11.4568C21.8091 10.1263 20.0484 9.33203 18.2622 9.33203C16.474 9.33203 14.7115 10.1269 13.5486 11.4581C12.5502 12.6005 12.1073 14.0124 12.2993 15.4319C12.4817 16.7893 12.9905 18.7221 13.5281 20.7682C14.1457 23.1164 14.8459 25.7781 14.8459 26.9973C14.8459 28.5327 13.596 29.7819 12.0599 29.7819H6.10795C5.57739 29.7819 5.14795 30.2114 5.14795 30.742V54.9525C5.14795 55.4824 5.57739 55.9125 6.10795 55.9125H30.4126C30.9432 55.9125 31.3726 55.4824 31.3726 54.9525V30.742C31.3732 30.212 30.9438 29.7819 30.4132 29.7819ZM12.0606 31.702C14.6558 31.702 16.7665 29.5912 16.7665 26.9973C16.7665 25.5298 16.0958 22.9794 15.3854 20.2792C14.8856 18.3797 14.3691 16.4149 14.202 15.1746C14.0523 14.068 14.5502 13.2296 14.9944 12.7215C15.786 11.8152 17.0379 11.252 18.2616 11.252C19.4833 11.252 20.7345 11.8146 21.5262 12.7202C21.971 13.229 22.4702 14.068 22.3204 15.1759C22.156 16.4028 21.6689 18.3381 21.1985 20.2095C20.5112 22.941 19.8628 25.5202 19.8628 26.9973C19.8628 29.5912 21.9736 31.702 24.5688 31.702H29.4532V36.829H7.06859V31.702H12.0606ZM7.06859 53.9925V38.749H29.4532V53.9925H7.06859Z" fill="#696969"/>
<path d="M21.2505 15.2427C21.2505 13.5947 19.9097 12.2539 18.2617 12.2539C16.6137 12.2539 15.2729 13.5947 15.2729 15.2427C15.2729 16.8907 16.6137 18.2315 18.2617 18.2315C19.9097 18.2315 21.2505 16.8907 21.2505 15.2427ZM17.1929 15.2427C17.1929 14.6533 17.6723 14.1739 18.2617 14.1739C18.8512 14.1739 19.3305 14.6533 19.3305 15.2427C19.3305 15.8321 18.8512 16.3115 18.2617 16.3115C17.6723 16.3115 17.1929 15.8321 17.1929 15.2427Z" fill="#0CDB92"/>
<path d="M58.4684 16.3778L53.2544 12.4489C53.088 12.3234 52.8857 12.2556 52.6771 12.2556H48.7296V9.04789C48.7296 8.51733 48.2995 8.08789 47.7696 8.08789H40.7769C40.247 8.08789 39.8169 8.51733 39.8169 9.04789V12.2556H30.6553C30.1248 12.2556 29.6953 12.685 29.6953 13.2156V20.6991C29.6953 21.2296 30.1248 21.6591 30.6553 21.6591H39.8169V54.9525C39.8169 55.4824 40.247 55.9125 40.7769 55.9125H47.7696C48.2995 55.9125 48.7296 55.4824 48.7296 54.9525V21.6591H57.8912C58.4211 21.6591 58.8512 21.2296 58.8512 20.6991V17.1445C58.8512 16.8431 58.7097 16.5596 58.4684 16.3778ZM41.7369 10.0079H46.8096V12.2556H41.7369V10.0079ZM46.8096 53.9925H41.7369V21.6591H46.8096V53.9925ZM56.9312 19.7391H31.6153V14.1756H52.3558L56.9312 17.6233V19.7391Z" fill="#696969"/>
<rect x="6" y="37" width="25" height="2" rx="1" fill="#0CDB92"/>
</svg>
