<svg width="1920" height="459" viewBox="0 0 1920 459" fill="none" xmlns="http://www.w3.org/2000/svg">
<path opacity="0.1" fill-rule="evenodd" clip-rule="evenodd" d="M1035.18 310.179C1090.38 327.841 1155.04 309.106 1231.93 273.072C1270.38 255.049 1311.93 232.68 1356.92 208.33L1363.16 204.956L1363.16 204.953C1406.39 181.554 1452.76 156.448 1502.61 131.679C1711.63 27.8251 1981.64 -70.0978 2335.74 -11.2882L2335.91 -12.2747C1981.51 -71.1324 1711.28 26.8819 1502.17 130.784C1452.3 155.561 1405.91 180.674 1362.69 204.072L1356.45 207.451C1311.45 231.803 1269.93 254.158 1231.5 272.167C1154.62 308.198 1090.28 326.76 1035.48 309.226C980.545 291.649 934.388 264.363 884.316 234.729L884.018 234.553C834.037 204.972 780.149 173.08 709.794 146.261C568.792 92.5104 361.713 59.1568 -12.6946 105.39L-12.572 106.382C361.735 60.1618 568.637 93.5214 709.438 147.195C779.713 173.984 833.538 205.839 883.525 235.423L883.526 235.423L883.527 235.424L883.807 235.589C933.866 265.216 980.116 292.561 1035.18 310.179ZM1035.18 314.907C1090.38 332.568 1155.03 314.518 1231.92 279.505C1270.38 261.992 1311.93 240.218 1356.92 216.507L1359.26 215.273L1363.62 212.973L1363.62 212.972L1363.63 212.967L1363.64 212.965C1406.73 190.25 1452.94 165.886 1502.61 141.855C1711.62 40.7225 1981.63 -54.4803 2335.74 4.32973L2335.91 3.34324C1981.51 -55.514 1711.28 39.7758 1502.17 140.955C1452.49 164.996 1406.25 189.371 1363.16 212.087L1356.45 215.622C1311.46 239.336 1269.93 261.096 1231.51 278.595C1154.63 313.605 1090.29 331.489 1035.48 313.955C981.43 296.661 935.879 270.628 886.738 242.543L884.309 241.155C834.242 212.545 780.281 181.942 709.786 156.431C568.786 105.406 361.71 74.7751 -12.6946 121.007L-12.572 122C361.738 75.7794 568.643 106.417 709.446 157.371C779.853 182.85 833.748 213.415 883.813 242.023L886.278 243.432C935.394 271.502 981.024 297.581 1035.18 314.907ZM1236.91 296.516C1160.57 330.464 1096.29 347.8 1041.09 330.141C988.43 313.291 943.488 288.815 895.385 262.617L891.898 260.718C890.871 260.159 889.843 259.599 888.812 259.038C838.195 231.496 783.559 202.352 712.413 178.293C570.128 130.177 361.74 102.381 -12.572 148.602L-12.6946 147.609C361.708 101.377 570.258 129.166 712.733 177.345C783.967 201.434 838.667 230.614 889.29 258.16C891.481 259.352 893.663 260.54 895.839 261.725C943.962 287.934 988.827 312.368 1041.4 329.188C1096.2 346.724 1160.18 329.546 1236.5 295.603C1274.65 278.637 1315.85 257.499 1360.5 234.451C1362.83 233.248 1365.17 232.04 1367.52 230.827C1410.17 208.802 1455.94 185.17 1505.13 161.871C1712.76 63.5339 1981.52 -28.9116 2335.91 29.9451L2335.74 30.9316C1981.63 -27.8789 1713.09 64.4839 1505.56 162.775C1456.38 186.065 1410.64 209.688 1367.98 231.714L1367.97 231.716C1365.63 232.929 1363.29 234.137 1360.96 235.34C1316.31 258.385 1275.09 279.537 1236.91 296.516ZM1039.32 340.121C1094.5 357.776 1158.89 342.873 1235.39 312.553C1273.65 297.389 1314.98 278.355 1359.72 257.578L1364.17 255.513L1368.67 253.421L1368.68 253.42C1410.89 233.812 1456.11 212.805 1504.66 192.119C1712.63 103.504 1981.62 20.8123 2335.74 79.6245L2335.9 78.638C1981.53 19.7831 1712.34 102.543 1504.26 191.199C1455.71 211.888 1410.48 232.898 1368.28 252.502L1368.27 252.504L1368.26 252.511L1368.26 252.512C1365.26 253.906 1362.27 255.292 1359.3 256.671C1314.55 277.45 1273.25 296.472 1235.02 311.624C1158.54 341.937 1094.44 356.708 1039.62 339.169C996.576 325.396 955.602 307.919 912.499 289.533L912.496 289.532L912.495 289.531C900.554 284.438 888.45 279.275 876.093 274.101C819.138 250.257 756.846 226.21 680.534 207.822C527.903 171.044 319.236 156.916 -15 212.232L-14.8367 213.218C319.303 157.918 527.83 172.055 680.299 208.794C756.537 227.164 818.772 251.188 875.706 275.024C888.049 280.191 900.143 285.35 912.079 290.441C955.191 308.83 996.221 326.332 1039.32 340.121ZM1241.82 342.53C1166.03 363.07 1102.15 371.423 1047.01 353.779C827.057 283.405 512.351 197.625 -12.524 315.267L-12.7427 314.291C512.362 196.598 827.258 282.42 1047.31 352.827C1102.17 370.378 1165.81 362.096 1241.56 341.564C1279.43 331.3 1320.31 317.982 1364.61 303.316C1369.7 301.633 1374.83 299.932 1380 298.216C1419.91 284.981 1462.54 270.846 1508.16 257C1714.31 194.431 1981.55 137.768 2335.91 196.618L2335.74 197.605C1981.59 138.788 1714.51 195.415 1508.45 257.957C1462.84 271.798 1420.23 285.929 1380.32 299.164L1380.03 299.261C1374.95 300.944 1369.92 302.613 1364.93 304.265C1320.63 318.93 1279.73 332.257 1241.82 342.53ZM1041.09 392.652C1096.2 410.286 1160.43 408.501 1236.77 397.784C1282.53 391.36 1332.68 381.72 1387.87 371.112L1387.87 371.111C1424.75 364.023 1463.87 356.503 1505.43 349.222C1712.98 312.862 1981.57 282.413 2335.74 341.234L2335.91 340.248C1981.58 281.402 1712.88 311.866 1505.26 348.237C1463.66 355.525 1424.52 363.048 1387.65 370.137L1387.64 370.137C1332.48 380.74 1282.37 390.372 1236.63 396.793C1160.32 407.506 1096.29 409.262 1041.4 391.7C931.351 356.49 826.614 334.941 669.972 341.253C513.349 347.564 304.842 381.729 -12.75 457.922L-12.5167 458.895C305.057 382.706 513.488 348.56 670.012 342.253C826.518 335.946 931.137 357.472 1041.09 392.652Z" fill="url(#paint0_linear_364_1049)"/>
<defs>
<linearGradient id="paint0_linear_364_1049" x1="288.643" y1="287.002" x2="2335.91" y2="287.002" gradientUnits="userSpaceOnUse">
<stop stop-color="white" stop-opacity="0.17"/>
<stop offset="0.494792" stop-color="white"/>
<stop offset="1" stop-color="white" stop-opacity="0.08"/>
</linearGradient>
</defs>
</svg>
