<svg width="1380" height="14" viewBox="0 0 1380 14" fill="none" xmlns="http://www.w3.org/2000/svg">
<path d="M20 0V14" stroke="white"/>
<path d="M40 0V14" stroke="white"/>
<path d="M60 0V14" stroke="white"/>
<path d="M80 0V14" stroke="white"/>
<path d="M100 0V14" stroke="white"/>
<path d="M120 0V14" stroke="white"/>
<path d="M140 0V14" stroke="white"/>
<path d="M160 0V14" stroke="white"/>
<path d="M180 0V14" stroke="white"/>
<path d="M200 0V14" stroke="white"/>
<path d="M220 0V14" stroke="white"/>
<path d="M240 0V14" stroke="white"/>
<path d="M260 0V14" stroke="white"/>
<path d="M280 0V14" stroke="white"/>
<path d="M300 0V14" stroke="white"/>
<path d="M320 0V14" stroke="white"/>
<path d="M340 0V14" stroke="white"/>
<path d="M360 0V14" stroke="white"/>
<path d="M380 0V14" stroke="white"/>
<path d="M400 0V14" stroke="white"/>
<path d="M420 0V14" stroke="white"/>
<path d="M440 0V14" stroke="white"/>
<path d="M460 0V14" stroke="white"/>
<path d="M480 0V14" stroke="white"/>
<path d="M500 0V14" stroke="white"/>
<path d="M520 0V14" stroke="white"/>
<path d="M540 0V14" stroke="white"/>
<path d="M560 0V14" stroke="white"/>
<path d="M580 0V14" stroke="white"/>
<path d="M600 0V14" stroke="white"/>
<path d="M620 0V14" stroke="white"/>
<path d="M640 0V14" stroke="white"/>
<path d="M660 0V14" stroke="white"/>
<path d="M680 0V14" stroke="white"/>
<path d="M700 0V14" stroke="white"/>
<path d="M720 0V14" stroke="white"/>
<path d="M740 0V14" stroke="white"/>
<path d="M760 0V14" stroke="white"/>
<path d="M780 0V14" stroke="white"/>
<path d="M800 0V14" stroke="white"/>
<path d="M820 0V14" stroke="white"/>
<path d="M840 0V14" stroke="white"/>
<path d="M860 0V14" stroke="white"/>
<path d="M880 0V14" stroke="white"/>
<path d="M900 0V14" stroke="white"/>
<path d="M920 0V14" stroke="white"/>
<path d="M940 0V14" stroke="white"/>
<path d="M960 0V14" stroke="white"/>
<path d="M980 0V14" stroke="white"/>
<path d="M1000 0V14" stroke="white"/>
<path d="M1020 0V14" stroke="white"/>
<path d="M1040 0V14" stroke="white"/>
<path d="M1060 0V14" stroke="white"/>
<path d="M1080 0V14" stroke="white"/>
<path d="M1100 0V14" stroke="white"/>
<path d="M1120 0V14" stroke="white"/>
<path d="M1140 0V14" stroke="white"/>
<path d="M1160 0V14" stroke="white"/>
<path d="M1180 0V14" stroke="white"/>
<path d="M1200 0V14" stroke="white"/>
<path d="M1220 0V14" stroke="white"/>
<path d="M1240 0V14" stroke="white"/>
<path d="M1260 0V14" stroke="white"/>
<path d="M1280 0V14" stroke="white"/>
<path d="M1300 0V14" stroke="white"/>
<path d="M1320 0V14" stroke="white"/>
<path d="M1340 0V14" stroke="white"/>
<path d="M1360 0V14" stroke="white"/>
</svg>
