<svg width="961" height="11" viewBox="0 0 961 11" fill="none" xmlns="http://www.w3.org/2000/svg">
<path d="M26.0422 0.857422V10.8574" stroke="white"/>
<path d="M40.0422 0.857422V10.8574" stroke="white"/>
<path d="M54.0422 0.857422V10.8574" stroke="white"/>
<path d="M68.0422 0.857422V10.8574" stroke="white"/>
<path d="M82.0422 0.857422V10.8574" stroke="white"/>
<path d="M96.0422 0.857422V10.8574" stroke="white"/>
<path d="M110.042 0.857422V10.8574" stroke="white"/>
<path d="M124.042 0.857422V10.8574" stroke="white"/>
<path d="M138.042 0.857422V10.8574" stroke="white"/>
<path d="M152.042 0.857422V10.8574" stroke="white"/>
<path d="M166.042 0.857422V10.8574" stroke="white"/>
<path d="M180.042 0.857422V10.8574" stroke="white"/>
<path d="M194.042 0.857422V10.8574" stroke="white"/>
<path d="M208.042 0.857422V10.8574" stroke="white"/>
<path d="M222.042 0.857422V10.8574" stroke="white"/>
<path d="M236.042 0.857422V10.8574" stroke="white"/>
<path d="M250.042 0.857422V10.8574" stroke="white"/>
<path d="M264.042 0.857422V10.8574" stroke="white"/>
<path d="M278.042 0.857422V10.8574" stroke="white"/>
<path d="M292.042 0.857422V10.8574" stroke="white"/>
<path d="M306.042 0.857422V10.8574" stroke="white"/>
<path d="M320.042 0.857422V10.8574" stroke="white"/>
<path d="M334.042 0.857422V10.8574" stroke="white"/>
<path d="M348.042 0.857422V10.8574" stroke="white"/>
<path d="M362.042 0.857422V10.8574" stroke="white"/>
<path d="M376.042 0.857422V10.8574" stroke="white"/>
<path d="M390.042 0.857422V10.8574" stroke="white"/>
<path d="M404.042 0.857422V10.8574" stroke="white"/>
<path d="M418.042 0.857422V10.8574" stroke="white"/>
<path d="M432.042 0.857422V10.8574" stroke="white"/>
<path d="M446.042 0.857422V10.8574" stroke="white"/>
<path d="M460.042 0.857422V10.8574" stroke="white"/>
<path d="M474.042 0.857422V10.8574" stroke="white"/>
<path d="M486.042 0.857422V10.8574" stroke="white"/>
<path d="M500.042 0.857422V10.8574" stroke="white"/>
<path d="M514.042 0.857422V10.8574" stroke="white"/>
<path d="M528.042 0.857422V10.8574" stroke="white"/>
<path d="M542.042 0.857422V10.8574" stroke="white"/>
<path d="M556.042 0.857422V10.8574" stroke="white"/>
<path d="M570.042 0.857422V10.8574" stroke="white"/>
<path d="M584.042 0.857422V10.8574" stroke="white"/>
<path d="M598.042 0.857422V10.8574" stroke="white"/>
<path d="M612.042 0.857422V10.8574" stroke="white"/>
<path d="M626.042 0.857422V10.8574" stroke="white"/>
<path d="M640.042 0.857422V10.8574" stroke="white"/>
<path d="M654.042 0.857422V10.8574" stroke="white"/>
<path d="M668.042 0.857422V10.8574" stroke="white"/>
<path d="M682.042 0.857422V10.8574" stroke="white"/>
<path d="M696.042 0.857422V10.8574" stroke="white"/>
<path d="M710.042 0.857422V10.8574" stroke="white"/>
<path d="M724.042 0.857422V10.8574" stroke="white"/>
<path d="M738.042 0.857422V10.8574" stroke="white"/>
<path d="M752.042 0.857422V10.8574" stroke="white"/>
<path d="M766.042 0.857422V10.8574" stroke="white"/>
<path d="M780.042 0.857422V10.8574" stroke="white"/>
<path d="M794.042 0.857422V10.8574" stroke="white"/>
<path d="M808.042 0.857422V10.8574" stroke="white"/>
<path d="M822.042 0.857422V10.8574" stroke="white"/>
<path d="M836.042 0.857422V10.8574" stroke="white"/>
<path d="M850.042 0.857422V10.8574" stroke="white"/>
<path d="M864.042 0.857422V10.8574" stroke="white"/>
<path d="M878.042 0.857422V10.8574" stroke="white"/>
<path d="M892.042 0.857422V10.8574" stroke="white"/>
<path d="M906.042 0.857422V10.8574" stroke="white"/>
<path d="M920.042 0.857422V10.8574" stroke="white"/>
<path d="M934.042 0.857422V10.8574" stroke="white"/>
</svg>
