<svg width="500" height="242" viewBox="0 0 500 242" fill="none" xmlns="http://www.w3.org/2000/svg">
<g clip-path="url(#clip0_439_5557)">
<circle cx="500.603" cy="78.2482" r="0.998215" fill="#1A7AEA" stroke="#1A7AEA"/>
<circle cx="492.218" cy="80.4845" r="0.998215" fill="#1A7AEA" stroke="#1A7AEA"/>
<circle cx="483.864" cy="82.8342" r="0.998215" fill="#1A7AEA" stroke="#1A7AEA"/>
<circle cx="475.54" cy="85.2873" r="0.998215" fill="#1A7AEA" stroke="#1A7AEA"/>
<circle cx="467.248" cy="87.8478" r="0.998215" fill="#1A7AEA" stroke="#1A7AEA"/>
<circle cx="458.988" cy="90.5119" r="0.998215" fill="#1A7AEA" stroke="#1A7AEA"/>
<circle cx="450.761" cy="93.2736" r="0.998215" fill="#1A7AEA" stroke="#1A7AEA"/>
<circle cx="442.569" cy="96.133" r="0.998215" fill="#1A7AEA" stroke="#1A7AEA"/>
<circle cx="434.409" cy="99.09" r="0.998215" fill="#1A7AEA" stroke="#1A7AEA"/>
<circle cx="426.284" cy="102.137" r="0.998215" fill="#1A7AEA" stroke="#1A7AEA"/>
<circle cx="418.192" cy="105.274" r="0.998215" fill="#1A7AEA" stroke="#1A7AEA"/>
<circle cx="410.135" cy="108.496" r="0.998215" fill="#1A7AEA" stroke="#1A7AEA"/>
<circle cx="402.111" cy="111.799" r="0.998215" fill="#1A7AEA" stroke="#1A7AEA"/>
<circle cx="394.121" cy="115.188" r="0.998215" fill="#1A7AEA" stroke="#1A7AEA"/>
<circle cx="386.163" cy="118.647" r="0.998215" fill="#1A7AEA" stroke="#1A7AEA"/>
<circle cx="378.236" cy="122.18" r="0.998215" fill="#1A7AEA" stroke="#1A7AEA"/>
<circle cx="370.341" cy="125.781" r="0.998215" fill="#1A7AEA" stroke="#1A7AEA"/>
<circle cx="362.475" cy="129.444" r="0.998215" fill="#1A7AEA" stroke="#1A7AEA"/>
<circle cx="354.637" cy="133.17" r="0.998215" fill="#1A7AEA" stroke="#1A7AEA"/>
<circle cx="346.825" cy="136.949" r="0.998215" fill="#1A7AEA" stroke="#1A7AEA"/>
<circle cx="339.039" cy="140.779" r="0.998215" fill="#1A7AEA" stroke="#1A7AEA"/>
<circle cx="331.274" cy="144.654" r="0.998215" fill="#1A7AEA" stroke="#1A7AEA"/>
<circle cx="323.529" cy="148.569" r="0.998215" fill="#1A7AEA" stroke="#1A7AEA"/>
<circle cx="315.802" cy="152.516" r="0.998215" fill="#1A7AEA" stroke="#1A7AEA"/>
<circle cx="308.089" cy="156.49" r="0.998215" fill="#1A7AEA" stroke="#1A7AEA"/>
<circle cx="300.386" cy="160.486" r="0.998215" fill="#1A7AEA" stroke="#1A7AEA"/>
<circle cx="292.69" cy="164.494" r="0.998215" fill="#1A7AEA" stroke="#1A7AEA"/>
<circle cx="284.997" cy="168.51" r="0.998215" fill="#1A7AEA" stroke="#1A7AEA"/>
<circle cx="277.302" cy="172.516" r="0.998215" fill="#1A7AEA" stroke="#1A7AEA"/>
<circle cx="269.599" cy="176.512" r="0.998215" fill="#1A7AEA" stroke="#1A7AEA"/>
<circle cx="261.883" cy="180.479" r="0.998215" fill="#1A7AEA" stroke="#1A7AEA"/>
<circle cx="254.146" cy="184.406" r="0.998215" fill="#1A7AEA" stroke="#1A7AEA"/>
<circle cx="246.383" cy="188.279" r="0.998215" fill="#1A7AEA" stroke="#1A7AEA"/>
<circle cx="238.585" cy="192.082" r="0.998215" fill="#1A7AEA" stroke="#1A7AEA"/>
<circle cx="230.742" cy="195.787" r="0.998215" fill="#1A7AEA" stroke="#1A7AEA"/>
<circle cx="222.845" cy="199.379" r="0.998215" fill="#1A7AEA" stroke="#1A7AEA"/>
<circle cx="214.884" cy="202.822" r="0.998215" fill="#1A7AEA" stroke="#1A7AEA"/>
<circle cx="206.848" cy="206.086" r="0.998215" fill="#1A7AEA" stroke="#1A7AEA"/>
<circle cx="198.724" cy="209.123" r="0.998215" fill="#1A7AEA" stroke="#1A7AEA"/>
<circle cx="190.503" cy="211.883" r="0.998215" fill="#1A7AEA" stroke="#1A7AEA"/>
<circle cx="182.174" cy="214.297" r="0.998215" fill="#1A7AEA" stroke="#1A7AEA"/>
<circle cx="173.736" cy="216.293" r="0.998215" fill="#1A7AEA" stroke="#1A7AEA"/>
<circle cx="165.19" cy="217.768" r="0.998215" fill="#1A7AEA" stroke="#1A7AEA"/>
<circle cx="156.558" cy="218.61" r="0.998215" fill="#1A7AEA" stroke="#1A7AEA"/>
<circle cx="147.884" cy="218.69" r="0.998215" fill="#1A7AEA" stroke="#1A7AEA"/>
<circle cx="139.244" cy="217.891" r="0.998215" fill="#1A7AEA" stroke="#1A7AEA"/>
<circle cx="130.743" cy="216.108" r="0.998215" fill="#1A7AEA" stroke="#1A7AEA"/>
<circle cx="122.48" cy="213.465" r="0.998215" fill="#1A7AEA" stroke="#1A7AEA"/>
<circle cx="114.322" cy="210.508" r="0.998215" fill="#1A7AEA" stroke="#1A7AEA"/>
<circle cx="106.254" cy="207.309" r="0.998215" fill="#1A7AEA" stroke="#1A7AEA"/>
<circle cx="98.2709" cy="203.906" r="0.998215" fill="#1A7AEA" stroke="#1A7AEA"/>
<circle cx="90.3632" cy="200.332" r="0.998215" fill="#1A7AEA" stroke="#1A7AEA"/>
<circle cx="82.5192" cy="196.619" r="0.998215" fill="#1A7AEA" stroke="#1A7AEA"/>
<circle cx="74.727" cy="192.801" r="0.998215" fill="#1A7AEA" stroke="#1A7AEA"/>
<circle cx="66.9726" cy="188.906" r="0.998215" fill="#1A7AEA" stroke="#1A7AEA"/>
<circle cx="59.2433" cy="184.963" r="0.998215" fill="#1A7AEA" stroke="#1A7AEA"/>
<circle cx="51.5253" cy="180.994" r="0.998215" fill="#1A7AEA" stroke="#1A7AEA"/>
<circle cx="43.8071" cy="177.029" r="0.998215" fill="#1A7AEA" stroke="#1A7AEA"/>
<circle cx="36.0778" cy="173.086" r="0.998215" fill="#1A7AEA" stroke="#1A7AEA"/>
<circle cx="28.3263" cy="169.186" r="0.998215" fill="#1A7AEA" stroke="#1A7AEA"/>
<circle cx="20.5458" cy="165.344" r="0.998215" fill="#1A7AEA" stroke="#1A7AEA"/>
<circle cx="12.7277" cy="161.58" r="0.998215" fill="#1A7AEA" stroke="#1A7AEA"/>
<circle cx="4.86736" cy="157.904" r="0.998215" fill="#1A7AEA" stroke="#1A7AEA"/>
</g>
<defs>
<clipPath id="clip0_439_5557">
<rect width="500" height="242" fill="white"/>
</clipPath>
</defs>
</svg>
