<svg width="1921" height="326" viewBox="0 0 1921 326" fill="none" xmlns="http://www.w3.org/2000/svg">
<g clip-path="url(#clip0_398_2473)">
<circle cx="1910.74" cy="12.8789" r="2" fill="#1A7AEA"/>
<circle cx="1893.48" cy="10.7734" r="2" fill="#1A7AEA"/>
<circle cx="1876.19" cy="8.88672" r="2" fill="#1A7AEA"/>
<circle cx="1858.89" cy="7.22461" r="2" fill="#1A7AEA"/>
<circle cx="1841.56" cy="5.78516" r="2" fill="#1A7AEA"/>
<circle cx="1824.21" cy="4.57227" r="2" fill="#1A7AEA"/>
<circle cx="1806.85" cy="3.58984" r="2" fill="#1A7AEA"/>
<circle cx="1789.48" cy="2.83984" r="2" fill="#1A7AEA"/>
<circle cx="1772.1" cy="2.32422" r="2" fill="#1A7AEA"/>
<circle cx="1754.72" cy="2.04297" r="2" fill="#1A7AEA"/>
<circle cx="1737.33" cy="2" r="2" fill="#1A7AEA"/>
<circle cx="1719.95" cy="2.19727" r="2" fill="#1A7AEA"/>
<circle cx="1702.57" cy="2.63477" r="2" fill="#1A7AEA"/>
<circle cx="1685.19" cy="3.31445" r="2" fill="#1A7AEA"/>
<circle cx="1667.83" cy="4.23633" r="2" fill="#1A7AEA"/>
<circle cx="1650.48" cy="5.40234" r="2" fill="#1A7AEA"/>
<circle cx="1633.15" cy="6.8125" r="2" fill="#1A7AEA"/>
<circle cx="1615.84" cy="8.4668" r="2" fill="#1A7AEA"/>
<circle cx="1598.56" cy="10.3633" r="2" fill="#1A7AEA"/>
<circle cx="1581.3" cy="12.5039" r="2" fill="#1A7AEA"/>
<circle cx="1564.08" cy="14.8887" r="2" fill="#1A7AEA"/>
<circle cx="1546.89" cy="17.5137" r="2" fill="#1A7AEA"/>
<circle cx="1529.74" cy="20.3789" r="2" fill="#1A7AEA"/>
<circle cx="1512.64" cy="23.4824" r="2" fill="#1A7AEA"/>
<circle cx="1495.57" cy="26.8242" r="2" fill="#1A7AEA"/>
<circle cx="1478.56" cy="30.3984" r="2" fill="#1A7AEA"/>
<circle cx="1461.59" cy="34.2051" r="2" fill="#1A7AEA"/>
<circle cx="1444.68" cy="38.2402" r="2" fill="#1A7AEA"/>
<circle cx="1427.82" cy="42.502" r="2" fill="#1A7AEA"/>
<circle cx="1411.02" cy="46.9863" r="2" fill="#1A7AEA"/>
<circle cx="1394.28" cy="51.6895" r="2" fill="#1A7AEA"/>
<circle cx="1377.61" cy="56.6074" r="2" fill="#1A7AEA"/>
<circle cx="1360.99" cy="61.7363" r="2" fill="#1A7AEA"/>
<circle cx="1344.44" cy="67.0703" r="2" fill="#1A7AEA"/>
<circle cx="1327.96" cy="72.6055" r="2" fill="#1A7AEA"/>
<circle cx="1311.55" cy="78.3359" r="2" fill="#1A7AEA"/>
<circle cx="1295.2" cy="84.2578" r="2" fill="#1A7AEA"/>
<circle cx="1278.92" cy="90.3633" r="2" fill="#1A7AEA"/>
<circle cx="1262.71" cy="96.6484" r="2" fill="#1A7AEA"/>
<circle cx="1246.56" cy="103.105" r="2" fill="#1A7AEA"/>
<circle cx="1230.49" cy="109.727" r="2" fill="#1A7AEA"/>
<circle cx="1214.48" cy="116.51" r="2" fill="#1A7AEA"/>
<circle cx="1198.53" cy="123.443" r="2" fill="#1A7AEA"/>
<circle cx="1182.65" cy="130.521" r="2" fill="#1A7AEA"/>
<circle cx="1166.83" cy="137.736" r="2" fill="#1A7AEA"/>
<circle cx="1151.07" cy="145.078" r="2" fill="#1A7AEA"/>
<circle cx="1135.37" cy="152.541" r="2" fill="#1A7AEA"/>
<circle cx="1119.72" cy="160.113" r="2" fill="#1A7AEA"/>
<circle cx="1104.12" cy="167.787" r="2" fill="#1A7AEA"/>
<circle cx="1088.56" cy="175.551" r="2" fill="#1A7AEA"/>
<circle cx="1073.04" cy="183.393" r="2" fill="#1A7AEA"/>
<circle cx="1057.56" cy="191.303" r="2" fill="#1A7AEA"/>
<circle cx="1042.1" cy="199.268" r="2" fill="#1A7AEA"/>
<circle cx="1026.67" cy="207.273" r="2" fill="#1A7AEA"/>
<circle cx="1011.25" cy="215.305" r="2" fill="#1A7AEA"/>
<circle cx="995.839" cy="223.346" r="2" fill="#1A7AEA"/>
<circle cx="980.421" cy="231.377" r="2" fill="#1A7AEA"/>
<circle cx="964.988" cy="239.379" r="2" fill="#1A7AEA"/>
<circle cx="949.528" cy="247.328" r="2" fill="#1A7AEA"/>
<circle cx="934.028" cy="255.197" r="2" fill="#1A7AEA"/>
<circle cx="918.473" cy="262.957" r="2" fill="#1A7AEA"/>
<circle cx="902.848" cy="270.574" r="2" fill="#1A7AEA"/>
<circle cx="887.135" cy="278.002" r="2" fill="#1A7AEA"/>
<circle cx="871.313" cy="285.195" r="2" fill="#1A7AEA"/>
<circle cx="855.363" cy="292.098" r="2" fill="#1A7AEA"/>
<circle cx="839.261" cy="298.633" r="2" fill="#1A7AEA"/>
<circle cx="822.985" cy="304.719" r="2" fill="#1A7AEA"/>
<circle cx="806.513" cy="310.248" r="2" fill="#1A7AEA"/>
<circle cx="789.827" cy="315.09" r="2" fill="#1A7AEA"/>
<circle cx="772.918" cy="319.086" r="2" fill="#1A7AEA"/>
<circle cx="755.797" cy="322.039" r="2" fill="#1A7AEA"/>
<circle cx="738.502" cy="323.727" r="2" fill="#1A7AEA"/>
<circle cx="721.123" cy="323.891" r="2" fill="#1A7AEA"/>
<circle cx="703.812" cy="322.287" r="2" fill="#1A7AEA"/>
<circle cx="686.78" cy="318.717" r="2" fill="#1A7AEA"/>
<circle cx="670.225" cy="313.422" r="2" fill="#1A7AEA"/>
<circle cx="653.879" cy="307.494" r="2" fill="#1A7AEA"/>
<circle cx="637.714" cy="301.088" r="2" fill="#1A7AEA"/>
<circle cx="621.719" cy="294.27" r="2" fill="#1A7AEA"/>
<circle cx="605.875" cy="287.107" r="2" fill="#1A7AEA"/>
<circle cx="590.16" cy="279.67" r="2" fill="#1A7AEA"/>
<circle cx="574.547" cy="272.02" r="2" fill="#1A7AEA"/>
<circle cx="559.011" cy="264.215" r="2" fill="#1A7AEA"/>
<circle cx="543.524" cy="256.312" r="2" fill="#1A7AEA"/>
<circle cx="528.061" cy="248.363" r="2" fill="#1A7AEA"/>
<circle cx="512.597" cy="240.418" r="2" fill="#1A7AEA"/>
<circle cx="497.11" cy="232.518" r="2" fill="#1A7AEA"/>
<circle cx="481.581" cy="224.703" r="2" fill="#1A7AEA"/>
<circle cx="465.991" cy="217.008" r="2" fill="#1A7AEA"/>
<circle cx="450.328" cy="209.465" r="2" fill="#1A7AEA"/>
<circle cx="434.579" cy="202.102" r="2" fill="#1A7AEA"/>
<circle cx="418.735" cy="194.945" r="2" fill="#1A7AEA"/>
<circle cx="402.792" cy="188.016" r="2" fill="#1A7AEA"/>
<circle cx="386.743" cy="181.332" r="2" fill="#1A7AEA"/>
<circle cx="370.589" cy="174.91" r="2" fill="#1A7AEA"/>
<circle cx="354.328" cy="168.762" r="2" fill="#1A7AEA"/>
<circle cx="337.963" cy="162.896" r="2" fill="#1A7AEA"/>
<circle cx="321.496" cy="157.324" r="2" fill="#1A7AEA"/>
<circle cx="304.931" cy="152.051" r="2" fill="#1A7AEA"/>
<circle cx="288.274" cy="147.078" r="2" fill="#1A7AEA"/>
<circle cx="271.529" cy="142.408" r="2" fill="#1A7AEA"/>
<circle cx="254.703" cy="138.039" r="2" fill="#1A7AEA"/>
<circle cx="237.802" cy="133.973" r="2" fill="#1A7AEA"/>
<circle cx="220.831" cy="130.205" r="2" fill="#1A7AEA"/>
<circle cx="203.798" cy="126.732" r="2" fill="#1A7AEA"/>
<circle cx="186.708" cy="123.549" r="2" fill="#1A7AEA"/>
<circle cx="169.567" cy="120.65" r="2" fill="#1A7AEA"/>
<circle cx="152.382" cy="118.031" r="2" fill="#1A7AEA"/>
<circle cx="135.157" cy="115.684" r="2" fill="#1A7AEA"/>
<circle cx="117.898" cy="113.602" r="2" fill="#1A7AEA"/>
<circle cx="100.61" cy="111.777" r="2" fill="#1A7AEA"/>
<circle cx="83.2974" cy="110.205" r="2" fill="#1A7AEA"/>
<circle cx="65.9639" cy="108.877" r="2" fill="#1A7AEA"/>
<circle cx="48.6138" cy="107.785" r="2" fill="#1A7AEA"/>
<circle cx="31.251" cy="106.922" r="2" fill="#1A7AEA"/>
<circle cx="13.8782" cy="106.283" r="2" fill="#1A7AEA"/>
</g>
<defs>
<clipPath id="clip0_398_2473">
<rect width="1920" height="326" fill="white" transform="translate(0.98291)"/>
</clipPath>
</defs>
</svg>
