<svg width="31" height="30" viewBox="0 0 31 30" fill="none" xmlns="http://www.w3.org/2000/svg">
<path d="M15.5 1.875C12.7659 1.8781 10.1447 2.96559 8.21139 4.89889C6.27809 6.83218 5.1906 9.45341 5.1875 12.1875C5.1875 21.0117 14.5625 27.6762 14.9621 27.9551C15.1197 28.0655 15.3075 28.1247 15.5 28.1247C15.6925 28.1247 15.8803 28.0655 16.0379 27.9551C16.4375 27.6762 25.8125 21.0117 25.8125 12.1875C25.8094 9.45341 24.7219 6.83218 22.7886 4.89889C20.8553 2.96559 18.2341 1.8781 15.5 1.875ZM15.5 8.4375C16.2417 8.4375 16.9667 8.65743 17.5834 9.06949C18.2001 9.48154 18.6807 10.0672 18.9645 10.7524C19.2484 11.4377 19.3226 12.1917 19.1779 12.9191C19.0333 13.6465 18.6761 14.3147 18.1516 14.8392C17.6272 15.3636 16.959 15.7208 16.2316 15.8654C15.5042 16.0101 14.7502 15.9359 14.0649 15.652C13.3797 15.3682 12.794 14.8876 12.382 14.2709C11.9699 13.6542 11.75 12.9292 11.75 12.1875C11.75 11.1929 12.1451 10.2391 12.8483 9.53585C13.5516 8.83259 14.5054 8.4375 15.5 8.4375Z" fill="#0CDB92"/>
</svg>
