<?xml version="1.0" encoding="UTF-8"?>
<svg fill="none" viewBox="0 0 114 146" xmlns="http://www.w3.org/2000/svg">
<g clip-path="url(#a)">
<path d="m106.45 50.529c-0.758 0.5922-14.045 8.1218-14.045 24.872 0 19.374 16.904 26.226 17.409 26.395-0.084 0.422-2.692 9.39-8.915 18.527-5.5504 8.038-11.354 16.074-20.184 16.074-8.8302 0-11.101-5.16-21.277-5.16-9.9237 0-13.456 5.33-21.53 5.33-8.0737 0-13.708-7.445-20.184-16.582-7.4849-10.745-13.54-27.411-13.54-43.231 0-25.38 16.4-38.832 32.546-38.832 8.5785 0 15.726 5.6685 21.109 5.6685 5.13 0 13.12-6.0068 22.875-6.0068 3.701 8e-4 16.989 0.3399 25.736 12.945zm-30.36-23.688c4.0364-4.8223 6.8962-11.506 6.8962-18.189 0-0.93055-0.0839-1.8611-0.2524-2.6229-6.5599 0.25393-14.381 4.3996-19.091 9.8985-3.7001 4.2301-7.1486 10.913-7.1486 17.682 0 1.0149 0.1686 2.0307 0.2525 2.369 0.4201 0.0843 1.0936 0.1695 1.7662 0.1695 5.8872-8e-4 13.288-3.9769 17.577-9.3071z" fill="#fff"/>
</g>
<defs>
<clipPath id="a">
<rect width="114" height="146" fill="#fff"/>
</clipPath>
</defs>
</svg>
