<svg width="1874" height="1102" viewBox="0 0 1874 1102" fill="none" xmlns="http://www.w3.org/2000/svg">
<path opacity="0.1" fill-rule="evenodd" clip-rule="evenodd" d="M573.507 361.513C454.057 362.874 373.702 334.528 320.925 287.829C268.148 241.13 243.023 176.144 233.897 104.377C224.771 32.6134 231.637 -45.9744 242.882 -119.938C248.504 -156.923 255.223 -192.759 261.589 -226.014C262.357 -230.026 263.119 -234.001 263.875 -237.935L263.875 -237.94L263.877 -237.949C269.38 -266.622 274.474 -293.162 278.175 -316.609L279.163 -316.453C275.458 -292.988 270.361 -266.428 264.858 -237.756C264.103 -233.818 263.339 -229.841 262.571 -225.826C256.206 -192.572 249.49 -156.752 243.87 -119.788C232.63 -45.8546 225.781 32.6249 234.889 104.25C243.997 175.872 269.054 240.596 321.587 287.08C374.12 333.563 454.203 361.872 573.496 360.513C600.671 360.204 628.374 359.672 656.498 359.133L656.546 359.132L656.56 359.131C860.355 355.221 1086.29 350.885 1294.1 427.372C1530.67 514.444 1743.69 706.225 1873.98 1122.35L1873.02 1122.65C1742.81 706.775 1529.99 515.259 1293.76 428.31C1086.14 351.894 860.404 356.223 656.591 360.132C628.443 360.671 600.713 361.203 573.507 361.513ZM537.453 372.397C418.047 368.674 332.133 336.605 270.972 287.216C209.812 237.828 173.45 171.157 153.083 98.3099C112.356 -47.3575 135.556 -217.826 152.401 -324.527L153.389 -324.371C136.542 -217.654 113.385 -47.3902 154.046 98.0406C174.373 170.743 210.642 237.213 271.6 286.438C332.556 335.662 418.246 367.68 537.484 371.398C796.706 379.481 1046.67 414.552 1257.79 522.755C1468.93 630.968 1641.18 812.306 1744.97 1112.84L1744.03 1113.16C1640.31 812.866 1468.24 631.735 1257.34 523.645C1046.42 415.544 796.624 380.478 537.453 372.397ZM87.067 194.975C151.63 299.212 280.136 378.492 518.887 385.936C996.038 400.814 1441.97 625.951 1603.03 1108.66L1603.98 1108.34C1442.75 625.113 996.341 399.823 518.918 384.936C280.382 377.499 152.249 298.312 87.9171 194.449C23.5637 90.5508 22.97 -38.17 39.8091 -144.836L38.8213 -144.992C21.9687 -38.2401 22.5253 90.7734 87.067 194.975ZM1443.98 1109.31C1339.52 715.733 977.676 411.498 500.602 396.623C261.907 389.18 122.141 336.943 40.3711 259.256C-41.4075 181.563 -65.0845 78.5045 -71.8204 -30.3301L-70.8224 -30.3919C-64.0917 78.3573 -40.4425 181.1 41.0599 258.532C122.571 335.971 262.041 388.184 500.633 395.623C978.133 410.512 1340.37 715.034 1444.95 1109.05L1443.98 1109.31Z" fill="url(#paint0_linear_1044_1009)"/>
<defs>
<linearGradient id="paint0_linear_1044_1009" x1="1959.07" y1="1318.6" x2="79.9995" y2="-44.0494" gradientUnits="userSpaceOnUse">
<stop stop-color="white" stop-opacity="0.22"/>
<stop offset="0.307631" stop-color="white" stop-opacity="0.597914"/>
<stop offset="0.795284" stop-color="white"/>
<stop offset="1" stop-color="white" stop-opacity="0"/>
</linearGradient>
</defs>
</svg>
