<svg width="36" height="36" viewBox="0 0 36 36" fill="none" xmlns="http://www.w3.org/2000/svg">
<g clip-path="url(#clip0_364_1323)">
<path d="M36 31C36 33.762 33.762 36 31 36H5C2.23901 36 0 33.762 0 31V5C0 2.238 2.23901 0 5 0H31C33.762 0 36 2.238 36 5V31Z" fill="#1976D2"/>
<path d="M29.9375 12.041C29.9835 11.89 30.0055 11.75 29.9994 11.6251C29.9845 11.263 29.7355 11 29.1495 11H26.5315C25.8705 11 25.5655 11.4 25.3875 11.8011C25.3875 11.8011 23.7555 15.1601 21.8745 17.375C21.2645 18.016 20.9545 18 20.6245 18C20.4475 18 20.0005 17.786 20.0005 17.199V12.014C20.0005 11.32 19.8275 11 19.2685 11H14.6195C14.2125 11 14.0005 11.32 14.0005 11.641C14.0005 12.308 14.8985 12.468 15.0005 14.337V17.96C15.0005 18.84 14.8475 19 14.5175 19C13.6275 19 11.8755 16 10.7025 12.068C10.4485 11.294 10.1945 11 9.5335 11H6.89049C6.1275 11 6.00049 11.374 6.00049 11.774C6.00049 12.495 6.60049 16.393 9.8755 20.875C12.2505 24.125 15.3795 26 18.1495 26C19.8275 26 19.9995 25.573 19.9995 24.906V21.934C20.0005 21.133 20.1835 21 20.7175 21C21.0985 21 21.8755 21.25 23.3754 23C25.1055 25.018 25.4195 26 26.4115 26H29.0295C29.6375 26 29.9865 25.745 30.0005 25.25C30.0035 25.124 29.9855 24.983 29.9445 24.8261C29.7505 24.2501 28.8605 22.842 27.7505 21.5C27.1355 20.757 26.5285 20.021 26.2495 19.621C26.0625 19.36 25.9915 19.176 26.0005 19C26.0095 18.815 26.1055 18.639 26.2495 18.3931C26.2235 18.3931 29.6075 13.642 29.9375 12.041Z" fill="white"/>
</g>
<defs>
<clipPath id="clip0_364_1323">
<rect width="36" height="36" fill="white"/>
</clipPath>
</defs>
</svg>
