<svg width="37" height="34" viewBox="0 0 37 34" fill="none" xmlns="http://www.w3.org/2000/svg">
<g clip-path="url(#clip0_364_1319)">
<path d="M36.5813 17.5515C36.5556 16.5227 36.4784 15.4771 36.247 14.4736C35.8699 12.8545 34.9786 11.5222 33.2815 10.991C31.4216 10.4091 29.7589 10.9572 28.2591 12.0956C28.1819 12.1546 28.1133 12.2727 28.1133 12.357C28.1047 13.487 28.1047 14.6085 28.1047 15.73C28.6533 15.6204 29.1418 15.4771 29.639 15.4349C30.3074 15.3758 30.9331 15.5108 31.3188 16.1348C31.7045 16.7504 31.9445 17.4334 31.953 18.1502C31.9788 20.9076 31.9788 23.665 31.953 26.4141C31.9445 27.6283 31.2931 28.4379 30.1446 28.8258C30.0504 28.8595 29.9132 28.9944 29.9132 29.0788C29.9046 30.4364 29.9218 31.794 29.9303 33.1517C29.9303 33.3793 30.0246 33.4806 30.2818 33.4806C32.7244 33.5059 35.1757 31.8446 36.0242 29.5594C36.607 27.991 36.6756 26.355 36.667 24.7107C36.6499 22.3412 36.6499 19.9463 36.5813 17.5515ZM31.7474 5.23152C32.9387 5.10503 34.1386 4.97012 35.33 4.84362C35.5271 4.82676 35.6299 4.77617 35.6299 4.55692C35.6214 3.19085 35.6299 1.81635 35.6299 0.382812C33.6843 0.602058 31.8074 0.804437 29.9389 1.02369C27.7962 1.26823 25.6964 1.52964 23.5537 1.75731C23.4851 2.62587 23.4166 3.53658 23.3566 4.422C23.3223 4.97855 23.2965 5.5351 23.2708 6.12537C24.4622 5.99889 25.6021 5.88083 26.742 5.76277C28.4133 5.58569 30.0761 5.4086 31.7474 5.23152ZM26.9905 19.2548C27.0506 16.9022 27.102 14.5495 27.1706 12.2052C27.2049 10.8645 27.2648 9.52367 27.2991 8.1745C27.3077 7.77812 27.2991 7.38181 27.2991 6.96862C27.102 6.96862 26.9649 6.96019 26.8363 6.96862C25.7735 7.01922 24.7107 7.09515 23.6394 7.12043C23.2623 7.12886 23.1766 7.27223 23.168 7.59261C23.1509 8.33473 23.1166 9.06835 23.0909 9.8104C22.9795 12.7196 22.868 15.6373 22.7651 18.5465C22.748 18.9344 22.7651 19.3223 22.7651 19.7776C24.1193 19.7355 25.4136 19.6933 26.7163 19.6511C26.9992 19.6427 26.9905 19.4572 26.9905 19.2548ZM28.6533 28.7836C27.6333 28.674 27.102 27.7042 27.0677 26.7598C27.0248 25.6214 26.9991 24.4746 26.982 23.3362C26.982 23.0495 26.8963 22.9314 26.5792 22.9399C25.4479 22.9736 24.3079 22.9989 23.168 23.0073C22.8594 23.0073 22.808 23.1338 22.8166 23.3952C22.8337 24.1204 22.8251 24.8456 22.8509 25.5708C22.8852 26.6839 22.8509 27.8139 23.0223 28.9101C23.2537 30.3099 23.9479 31.5495 25.1564 32.3674C26.2278 33.0926 27.4877 33.3793 28.8676 33.5396C28.8676 31.988 28.8676 30.5039 28.859 29.0113C28.8676 28.9354 28.739 28.792 28.6533 28.7836ZM0.352506 16.6323H4.04652C4.04652 15.5529 4.02938 14.5242 4.04652 13.4954C4.08938 11.3957 4.68933 10.7464 6.78918 10.4934C6.83204 10.485 6.86632 10.4428 6.95202 10.3922V6.96019C4.44935 6.68192 1.69812 8.41059 0.79819 10.8139C0.0696692 12.7112 0.455356 14.6759 0.352506 16.6323ZM6.32635 25.5708C4.68076 25.5034 4.19223 24.989 4.15795 23.3615C4.13223 22.1219 4.15795 20.8823 4.13223 19.6427C4.12366 19.1199 4.06366 18.5886 4.02081 18.0574H0.369647C0.369647 19.98 0.275368 21.8268 0.386789 23.665C0.626772 27.4344 2.67519 29.5509 6.27493 29.981C6.78061 30.04 6.96916 29.9051 6.95202 29.4076C6.92631 28.3367 6.93488 27.2573 6.95202 26.1864C6.9606 25.7226 6.78918 25.5877 6.32635 25.5708ZM15.5057 12.2136C15.5143 12.981 15.5143 13.7568 15.5228 14.5242C15.5228 15.047 15.5228 15.5698 15.5228 16.0842H19.7225C19.7225 14.3049 19.7997 12.6184 19.6968 10.9488C19.6111 9.45623 18.874 8.23351 17.5627 7.4071C16.2171 6.55543 14.7171 6.42894 13.1745 6.55543C13.0287 6.56387 12.7973 6.79154 12.7887 6.92646C12.7544 8.01428 12.7716 9.1105 12.7716 10.232C13.0973 10.2489 13.3287 10.2657 13.5601 10.2742C14.9658 10.3248 15.48 10.8392 15.5057 12.2136ZM7.71482 33.6154H11.8802V2.87041C10.4489 3.0222 9.08617 3.16555 7.71482 3.3089V33.6154ZM19.7568 17.5515C18.5312 17.5515 17.3999 17.5683 16.2685 17.5431C15.7371 17.5261 15.5657 17.7117 15.5657 18.2345C15.5828 19.7102 15.5314 21.1775 15.54 22.6531C15.5486 24.5336 14.8114 25.554 12.9859 25.731C12.9258 25.7395 12.8659 25.79 12.8145 25.8153V29.6606C16.4056 29.8545 18.7026 27.9741 19.4311 25.2504C20.1253 22.7206 19.6026 20.1487 19.7568 17.5515Z" fill="url(#paint0_linear_364_1319)"/>
</g>
<defs>
<linearGradient id="paint0_linear_364_1319" x1="2.58434" y1="16.9981" x2="36.9299" y2="16.9981" gradientUnits="userSpaceOnUse">
<stop offset="0.0344" stop-color="#273580"/>
<stop offset="0.2149" stop-color="#46317C"/>
<stop offset="0.6071" stop-color="#942673"/>
<stop offset="0.8615" stop-color="#CA1E6D"/>
</linearGradient>
<clipPath id="clip0_364_1319">
<rect width="37" height="34" fill="white"/>
</clipPath>
</defs>
</svg>
